<svg xmlns="http://www.w3.org/2000/svg" viewBox="0 0 464.55 319.8"><defs><style>.cls-1{fill:#fff;stroke:#933;stroke-miterlimit:10;stroke-width:15px;}</style></defs><title>1000</title><g id="Capa_2" data-name="Capa 2"><g id="Layer_1" data-name="Layer 1"><path class="cls-1" d="M105.76,101.52A19.84,19.84,0,0,1,85.85,81.61,74.14,74.14,0,0,1,160,7.5a19.91,19.91,0,1,1,0,39.82,34.37,34.37,0,0,0-34.29,34.29,19.84,19.84,0,0,1-19.91,19.91"/><path class="cls-1" d="M160,7.5a19.91,19.91,0,0,0,0,39.82,34.29,34.29,0,1,1,0,68.59,19.91,19.91,0,1,1,0,39.82A74.11,74.11,0,1,0,160,7.5"/><path class="cls-1" d="M179.87,135.82A19.84,19.84,0,0,0,160,115.91a34.37,34.37,0,0,1-34.29-34.3,19.91,19.91,0,0,0-39.82,0A74.22,74.22,0,0,0,160,155.72a20,20,0,0,0,19.91-19.91"/><path class="cls-1" d="M269.91,155.72A74.22,74.22,0,0,1,195.8,81.61a19.91,19.91,0,0,1,39.82,0,34.29,34.29,0,1,0,34.29-34.29,19.91,19.91,0,0,1,0-39.82,74.11,74.11,0,1,1,0,148.22"/><path class="cls-1" d="M269.91,155.72A74.66,74.66,0,0,1,221,137.36a19.93,19.93,0,0,1,26.33-29.93,34.08,34.08,0,0,0,22.61,8.48,19.91,19.91,0,1,1,0,39.82"/><path class="cls-1" d="M269.91,155.72A74.22,74.22,0,0,1,195.8,81.61a19.91,19.91,0,0,1,39.82,0,34.37,34.37,0,0,0,34.29,34.3,19.91,19.91,0,1,1,0,39.82"/><path class="cls-1" d="M269.91,155.72a19.91,19.91,0,0,1,0-39.82,34.14,34.14,0,0,0,28.39-15.16,19.9,19.9,0,0,1,33,22.22,73.72,73.72,0,0,1-61.4,32.75"/><path class="cls-1" d="M215.71,101.52A19.84,19.84,0,0,1,195.8,81.61,74.22,74.22,0,0,1,269.91,7.5a19.91,19.91,0,0,1,0,39.82,34.37,34.37,0,0,0-34.29,34.29,19.85,19.85,0,0,1-19.91,19.91"/><path class="cls-1" d="M411.32,100.75a19.91,19.91,0,0,1,33.52,21.45,73.33,73.33,0,0,0,12.2-40.59A74.22,74.22,0,0,0,382.94,7.5a19.91,19.91,0,0,0,0,39.82,34.37,34.37,0,0,1,34.29,34.29c0,11.18-8.09,22.35-5.91,19.14"/><path class="cls-1" d="M382.94,155.72A74.65,74.65,0,0,1,334,137.36a19.93,19.93,0,1,1,26.33-29.93,34.08,34.08,0,0,0,22.61,8.48,19.91,19.91,0,1,1,0,39.82"/><path class="cls-1" d="M328.74,101.52a19.84,19.84,0,0,1-19.91-19.91A74.22,74.22,0,0,1,382.94,7.5a19.91,19.91,0,0,1,0,39.82,34.37,34.37,0,0,0-34.29,34.29,19.76,19.76,0,0,1-19.91,19.91"/><path class="cls-1" d="M382.94,155.72A74.65,74.65,0,0,1,334,137.36a19.93,19.93,0,1,1,26.33-29.93,34.08,34.08,0,0,0,22.61,8.48,19.91,19.91,0,1,1,0,39.82"/><path class="cls-1" d="M382.94,155.72a74.22,74.22,0,0,1-74.11-74.11,19.91,19.91,0,0,1,39.82,0,34.37,34.37,0,0,0,34.29,34.3,19.91,19.91,0,1,1,0,39.82"/><path class="cls-1" d="M444.85,122.2a19.91,19.91,0,0,0-33.52-21.45,34.13,34.13,0,0,1-7.83,8.22,30.3,30.3,0,0,1-5.14,3.08l-.77.39a6.28,6.28,0,0,1-.9.38c-.39.13-.64.26-1,.39a1.83,1.83,0,0,1-.77.26c-.51.13-.9.38-1.41.51-.13,0-.26.13-.39.13a10.69,10.69,0,0,1-1.93.51c-.13,0-.26,0-.26.13l-1.54.38c-.13,0-.39.13-.51.13-.51.13-.9.13-1.41.26a1.16,1.16,0,0,0-.64.13c-.51,0-.9.13-1.41.13h-2.44a19.91,19.91,0,1,0,0,39.82c1.41,0,2.83,0,4.24-.13a4.8,4.8,0,0,0,1.28-.13c1-.13,2.05-.13,3.08-.26.51,0,.9-.13,1.41-.13a23.79,23.79,0,0,0,3-.51c.38-.13.77-.13,1.28-.26l3.34-.77c.26,0,.51-.13.77-.13,1.29-.39,2.7-.77,4-1.16l1.16-.38c.9-.26,1.8-.64,2.7-.9a10,10,0,0,1,1.8-.64l1.93-.77c.64-.26,1.41-.64,2.05-.9.38-.26.9-.38,1.28-.64a72,72,0,0,0,24.15-19.27c1.41-2.06,3.08-4.24,4.5-6.42M61.44,155.72a19.84,19.84,0,0,1-19.91-19.91V27.92a19.91,19.91,0,0,1,39.82,0V135.82a20,20,0,0,1-19.91,19.91"/><path class="cls-1" d="M27.41,75.45A19.91,19.91,0,0,1,16,39.23L50,11.48A19.92,19.92,0,0,1,72.88,44.11l-34,27.74a19.75,19.75,0,0,1-11.43,3.6"/><path class="cls-1" d="M280.18,190.66c-.13-.13-.13-.26-.26-.39a6.26,6.26,0,0,1-.39-.9c-.13-.26-.26-.39-.38-.64a5.57,5.57,0,0,1-.51-.9c-.13-.26-.26-.39-.39-.64s-.39-.51-.64-.77-.39-.38-.51-.64-.39-.51-.64-.64a1424,1424,0,0,1-1.28-1,2.73,2.73,0,0,0-.77-.51c-.26-.13-.39-.26-.64-.39a3.23,3.23,0,0,0-.9-.51,1,1,0,0,0-.51-.26,4.56,4.56,0,0,0-1.16-.51c-.13,0-.13-.13-.26-.13h-.13c-.39-.13-.9-.39-1.28-.51-.13,0-.26-.13-.38-.13-.39-.13-.9-.26-1.28-.38a.47.47,0,0,1-.39-.13c-.51-.13-.9-.13-1.41-.26h-.38c-.51,0-.9-.13-1.41-.13H262.2c-.39,0-.9.13-1.28.13a1,1,0,0,0-.51.13c-.39.13-.77.13-1,.26a5.6,5.6,0,0,0-.64.13c-.26.13-.51.13-.77.26s-.64.26-1,.39c-.13,0-.13,0-.26.13a.45.45,0,0,0-.26.13c-.39.13-.64.38-1,.51s-.39.26-.64.39-.64.38-.9.51-.39.26-.64.39a3.44,3.44,0,0,0-.77.64c-.26.13-.39.39-.64.51s-.51.39-.64.64-.39.38-.51.64-.39.51-.64.64-.39.38-.51.64-.38.51-.51.77a2.69,2.69,0,0,1-.51.77l-.38.77-.39.77c-.13.13-.13.26-.26.51L205.3,287.38a17.84,17.84,0,0,0,16.18,24.92,17.88,17.88,0,0,0,16.31-10.66l3.08-7.06h45.6l3.08,7.06a17.88,17.88,0,0,0,16.31,10.66,17.08,17.08,0,0,0,7.07-1.54,17.7,17.7,0,0,0,9.12-23.38l-41.87-96.72Zm-23.51,68.08L264,242.17l7.32,16.57ZM84.69,180H62a17.76,17.76,0,0,0-17.73,17.72v96.46A17.76,17.76,0,0,0,62,311.91H84.56A66,66,0,0,0,84.69,180m0,96.46H79.81V215.58h4.88a30.44,30.44,0,0,1,0,60.88m295.93-48.17H364.19a6.29,6.29,0,0,1,0-12.59H395.4a17.72,17.72,0,0,0,0-35.45H364.06A41.89,41.89,0,0,0,362.39,264h16.44a6.29,6.29,0,1,1,0,12.59H347.49a17.73,17.73,0,0,0,0,35.45h31.34a41.89,41.89,0,0,0,1.8-83.75M166,210.06a23.68,23.68,0,0,1-6.29-3.73v88a17.72,17.72,0,1,0,35.45,0V199.4c-5,6.42-15.28,15.8-29.16,10.66"/><path class="cls-1" d="M170.75,164.84l-11.82,11.82a17.71,17.71,0,0,0,25,25l11.82-11.82a17.71,17.71,0,1,0-25-25"/></g></g></svg>