<svg xmlns="http://www.w3.org/2000/svg" viewBox="0 0 337.55 367.08"><defs><style>.cls-1{fill:none;stroke:#940f12;stroke-miterlimit:10;stroke-width:18px;}</style></defs><title>carta medica</title><g id="Capa_2" data-name="Capa 2"><g id="Layer_1" data-name="Layer 1"><polyline class="cls-1" points="287.73 118.2 328.55 155.08 328.55 358.08 9 358.08 9 155.08 49.06 119.56"/><polyline class="cls-1" points="116.13 60.08 170.25 12.08 223.39 60.08"/><polyline class="cls-1" points="9 155.08 106.72 247.08 9 358.08"/><polyline class="cls-1" points="328.55 155.08 230.82 247.08 328.55 358.08"/><line class="cls-1" x1="106.72" y1="247.08" x2="230.82" y2="247.08"/><polyline class="cls-1" points="49.06 192.79 49.06 60.08 287.72 60.08 287.72 192.79"/><polygon class="cls-1" points="191.72 171.58 191.72 208.08 156.22 208.08 156.22 171.58 119.72 171.58 119.72 136.08 156.22 136.08 156.22 99.58 191.72 99.58 191.72 136.08 228.22 136.08 228.22 171.58 191.72 171.58"/></g></g></svg>