<svg xmlns="http://www.w3.org/2000/svg" viewBox="0 0 493.6 465.42"><defs><style>.cls-1{fill:none;}.cls-1,.cls-2{stroke:#933;stroke-width:16px;}.cls-1,.cls-2,.cls-4{stroke-miterlimit:10;}.cls-2{fill:#fff;}.cls-3{fill:#933;}.cls-4{fill:#82212c;stroke:#fff;stroke-width:12px;}</style></defs><title>btnMap</title><g id="Capa_2" data-name="Capa 2"><g id="Capa_1-2" data-name="Capa 1"><polygon class="cls-1" points="483.45 457.42 10.45 457.42 74.45 220.42 426.45 220.42 483.45 457.42"/><path class="cls-2" d="M394.93,120.74c0,62.26-112.74,212.9-112.74,212.9S169.46,183,169.46,120.74a112.74,112.74,0,0,1,225.47,0Z"/><rect class="cls-3" x="240.81" y="89.46" width="85.9" height="75.14" rx="2" ry="2"/><polygon class="cls-3" points="281.62 54.18 281.62 54.18 211.83 107.58 351.42 107.58 281.62 54.18"/><line class="cls-4" x1="254.26" y1="121.62" x2="310.99" y2="121.62"/><line class="cls-4" x1="282.62" y1="149.6" x2="282.62" y2="93.63"/><line class="cls-1" x1="45.45" y1="346.42" x2="270.95" y2="346.42"/><polyline class="cls-1" points="247.45 370.42 274.45 343.42 274.45 342.92 241.45 323.42"/></g></g></svg>