<svg xmlns="http://www.w3.org/2000/svg" viewBox="0 0 507.28 488.78"><defs><style>.cls-1{fill:#fff;}</style></defs><title>btnMap</title><g id="Capa_2" data-name="Capa 2"><g id="Capa_1-2" data-name="Capa 1"><path class="cls-1" d="M476.57,203H376.08a9.22,9.22,0,0,0,0,18.44H460l26.72,248.94H20.91L52.3,221.4h84.05a9.22,9.22,0,0,0,0-18.44H36L0,488.78H507.28Z"/><path class="cls-1" d="M245.75,350.07c-1.36.79-2.81,1.5-4.09,2.33-2,1.31-4,2.69-6,4.11a9.23,9.23,0,0,0,10.92,14.87c1.64-1.22,3.31-2.38,5-3.49a104,104,0,0,1,9.36-5.36,9.16,9.16,0,0,0,4.26-11.71,2.22,2.22,0,0,0,.22-.2c16.68-17.67,72.89-83.87,96.18-194.15,4.71-22.36,5.78-43.83,3.13-63.81C356.88,32.05,319.23,0,255.9,0S154.93,32.05,147,92.67c-2.61,20-1.56,41.44,3.17,63.81C173.19,265.69,228.5,331.63,245.75,350.07Zm-80.49-255C172,43.53,201.67,18.44,255.9,18.44s83.89,25.08,90.64,76.64c2.35,17.89,1.37,37.29-2.9,57.6-20.93,99.15-70.8,162.05-87.73,181.14-16.93-19.11-66.8-82-87.71-181.14C163.89,132.37,162.92,113,165.27,95.08Z"/><path class="cls-1" d="M255.9,174.47a67.73,67.73,0,1,0-67.73-67.73A67.8,67.8,0,0,0,255.9,174.47Zm0-117a49.29,49.29,0,1,1-49.29,49.3A49.37,49.37,0,0,1,255.9,57.46Z"/><path class="cls-1" d="M289.77,333.49a9.21,9.21,0,0,0,1.93,18.23,9.42,9.42,0,0,0,1.93-.2c5.39-1.14,11.25-2.12,17.38-2.87a9.22,9.22,0,0,0-2.26-18.3C302.08,331.15,295.69,332.22,289.77,333.49Z"/><path class="cls-1" d="M337.45,337.22a9.2,9.2,0,0,0,9.19,8.82h.42l18.44-.76a9.22,9.22,0,0,0,8.79-9.64,9.45,9.45,0,0,0-9.62-8.81l-18.39.77A9.21,9.21,0,0,0,337.45,337.22Z"/><path class="cls-1" d="M206.83,379.65c-4.74,3.57-9.62,7-14.57,10.19a9.23,9.23,0,0,0,10.06,15.48c5.28-3.43,10.55-7.1,15.61-11a9.22,9.22,0,1,0-11.1-14.72Z"/><path class="cls-1" d="M412.32,318.84c-3.1,2.19-7.16,3.77-12.4,4.87A9.22,9.22,0,0,0,401.78,342a8.63,8.63,0,0,0,1.87-.2c7.75-1.59,14.07-4.15,19.32-7.84l1.23-.91a9.22,9.22,0,1,0-11.13-14.71Z"/><path class="cls-1" d="M81.69,390.94a9.22,9.22,0,1,0-17.79-4.82,60.65,60.65,0,0,0-2.07,13c-.06,1.07-.08,2.13-.08,3.25a53.66,53.66,0,0,0,.26,5.43A9.23,9.23,0,0,0,71.19,416c.29,0,.62,0,.94,0a9.21,9.21,0,0,0,8.23-10.12c-.12-1.21-.15-2.43-.17-3.58,0-.77,0-1.53.06-2.29A42.94,42.94,0,0,1,81.69,390.94Z"/><path class="cls-1" d="M412.12,247.19a54.14,54.14,0,0,0-22,1.65,9.23,9.23,0,0,0,2.5,18.1,8.7,8.7,0,0,0,2.5-.35,35.69,35.69,0,0,1,14.52-1.13,9.22,9.22,0,1,0,2.47-18.27Z"/><path class="cls-1" d="M430.47,292.85a9.21,9.21,0,0,0,6.1,11.52,8.64,8.64,0,0,0,2.7.43,9.21,9.21,0,0,0,8.82-6.5,39.63,39.63,0,0,0,1.68-8.88c0-.77.06-1.54.06-2.32a36.66,36.66,0,0,0-2.33-12.82,9.22,9.22,0,0,0-17.3,6.41,18.57,18.57,0,0,1,1.21,6.41l0,1.08A19.75,19.75,0,0,1,430.47,292.85Z"/><path class="cls-1" d="M161.17,407.19c-5.41,2.53-10.9,4.88-16.34,7a9.22,9.22,0,1,0,6.63,17.2c5.87-2.27,11.75-4.8,17.56-7.51a9.22,9.22,0,0,0-7.84-16.7Z"/><path class="cls-1" d="M94.06,368.81a9.05,9.05,0,0,0,4.39-1.13,22.49,22.49,0,0,1,8.42-2.66,15.09,15.09,0,0,1,3.74,0A9.13,9.13,0,0,0,121,357.1,9.23,9.23,0,0,0,113,346.75a34.15,34.15,0,0,0-8.23-.06,40.85,40.85,0,0,0-15.17,4.79,9.23,9.23,0,0,0,4.43,17.33Z"/><path class="cls-1" d="M92.13,441.11a45,45,0,0,0,6,1.13,57.13,57.13,0,0,0,7.09.43,68.31,68.31,0,0,0,8.66-.57,9.22,9.22,0,0,0-2.3-18.29,45.68,45.68,0,0,1-11.23.14,32.19,32.19,0,0,1-3.61-.7,9.22,9.22,0,1,0-4.65,17.85Z"/></g></g></svg>