<svg xmlns="http://www.w3.org/2000/svg" viewBox="0 0 498 498"><defs><style>.cls-1{fill:#fff;stroke-miterlimit:10;stroke-width:5px;}</style></defs><title>btnProtur</title><g id="Capa_2" data-name="Capa 2"><g id="Capa_1-2" data-name="Capa 1"><path class="cls-1" d="M495.5,169.45C495.5,77.39,420.61,2.5,328.55,2.5a166.84,166.84,0,0,0-142,79.08,7.85,7.85,0,0,0,13.34,8.27A150.47,150.47,0,0,1,328.55,18.2C412,18.2,479.8,86.05,479.8,169.45S412,320.7,328.55,320.7c-2,0-4-.05-6-.13L334.1,309a7.85,7.85,0,0,0-11.1-11.1L297.88,323a7.85,7.85,0,0,0,0,11.1L323,359.22a7.85,7.85,0,0,0,11.1-11.1l-11.85-11.85c2.1.08,4.2.13,6.3.13C420.61,336.4,495.5,261.51,495.5,169.45Z"/><path class="cls-1" d="M267.13,196.67A116.71,116.71,0,0,0,36,219.69V401.47L22.79,407A32.88,32.88,0,0,0,2.5,437.41v33.5a24.63,24.63,0,0,0,24.6,24.6H278.31a24.63,24.63,0,0,0,24.6-24.6v-33.5A32.89,32.89,0,0,0,282.62,407l-13.21-5.5.13-183Zm-215.43,23a101,101,0,1,1,202,0V247a24.48,24.48,0,0,0-8.9-1.67h-2.1a16.28,16.28,0,0,0-12.26-12.21,134,134,0,0,1-66.16-37.87,16.06,16.06,0,0,0-23.16,0A134.06,134.06,0,0,1,75,233.12,16.28,16.28,0,0,0,62.7,245.34h-2.1A24.46,24.46,0,0,0,51.7,247V219.69Zm101,116.71c30.06,0,50.62-6.29,64-12.94a25.62,25.62,0,0,1-7.9,6.83l-43.61,24.23a25.5,25.5,0,0,1-24.91,0L96.64,330.29A25.62,25.62,0,0,1,83.55,310.2L78,249c0-.31.34-.51.59-.57a149.7,149.7,0,0,0,73.89-42.3.32.32,0,0,1,.46,0,149.72,149.72,0,0,0,73.89,42.3c.25.06.62.26.59.57l-4.72,51.9c-6.41,5.67-26.74,19.82-70,19.82a7.85,7.85,0,1,0,0,15.7Zm-34,31.23V360.5l13.94,7.74a41.1,41.1,0,0,0,40.16,0l13.94-7.74v7.13a24.53,24.53,0,0,0,15.14,22.7l8.91,3.71c-25.84,30.83-51.11,41.14-58.09,43.53-7-2.36-32-12.49-58-43.53l8.91-3.71A24.53,24.53,0,0,0,118.68,367.63Zm89.21,8.21a8.87,8.87,0,0,1-5.48-8.21V351.78l14-7.76a41.31,41.31,0,0,0,21.1-32.4l0-.34h7.29a24.48,24.48,0,0,0,8.9-1.67v85.32Zm36.92-80.26h-5.87L242.09,261h2.73a8.91,8.91,0,0,1,8.9,8.9v16.75A8.91,8.91,0,0,1,244.81,295.58ZM51.7,269.93a8.91,8.91,0,0,1,8.9-8.9h2.73l3.14,34.54H60.59a8.91,8.91,0,0,1-8.9-8.9Zm0,39.67a24.48,24.48,0,0,0,8.9,1.67h7.29l0,.34A41.31,41.31,0,0,0,89,344l14,7.76v15.85a8.87,8.87,0,0,1-5.47,8.21L51.7,394.93V309.61Zm1,170.19H27.1a8.91,8.91,0,0,1-8.9-8.9v-33.5a17.29,17.29,0,0,1,1.14-6.2l26.91,21.53a17.18,17.18,0,0,1,6.48,13.49Zm15.7,0V466.23a32.81,32.81,0,0,0-12.37-25.75l-25-20,40-16.68a561.35,561.35,0,0,0,24,76H68.44Zm43.6,0a565.45,565.45,0,0,1-22.73-68.05c31.27,33.77,60.15,41.32,61.49,41.65a7.86,7.86,0,0,0,3.81,0c1.34-.33,30.21-7.88,61.49-41.65a565.63,565.63,0,0,1-22.73,68.05Zm174-48.59a17.29,17.29,0,0,1,1.14,6.2v33.5a8.91,8.91,0,0,1-8.9,8.9H252.66V466.23a17.19,17.19,0,0,1,6.48-13.49Zm-11.76-10.7-25,20A32.81,32.81,0,0,0,237,466.23V479.8H210.28a560.92,560.92,0,0,0,24-76Z"/><path class="cls-1" d="M353.92,237.5H308.58V189.92H261V144.58h47.58V97h45.34v47.58H401.5v45.34H353.92Z"/></g></g></svg>