<svg xmlns="http://www.w3.org/2000/svg" viewBox="0 0 468.5 468.51"><defs><style>.cls-1{fill:#933;}</style></defs><title>btnProtur</title><g id="Capa_2" data-name="Capa 2"><g id="Capa_1-2" data-name="Capa 1"><g id="Capa_2-2" data-name="Capa 2"><g id="Capa_1-2-2" data-name="Capa 1-2"><path class="cls-1" d="M468.5,158.65C468.5,71.17,397.33,0,309.85,0A158.55,158.55,0,0,0,174.9,75.15,7.46,7.46,0,0,0,187.58,83,143,143,0,0,1,309.85,14.92c79.3,0,143.73,64.48,143.73,143.73S389.15,302.39,309.85,302.39c-1.9,0-3.8,0-5.7-.12l11-11a7.46,7.46,0,0,0-10.55-10.55L280.7,304.57a7.46,7.46,0,0,0,0,10.55L304.57,339a7.46,7.46,0,0,0,10.55-10.55l-11.26-11.26c2,.08,4,.12,6,.12C397.33,317.31,468.5,246.14,468.5,158.65Z"/><path class="cls-1" d="M251.48,184.52A110.91,110.91,0,0,0,31.84,206.4V379.14L19.28,384.4A31.25,31.25,0,0,0,0,413.3v31.84a23.41,23.41,0,0,0,23.38,23.38H262.1a23.41,23.41,0,0,0,23.38-23.38V413.3a31.26,31.26,0,0,0-19.28-28.9l-12.55-5.23.12-173.91ZM46.76,206.38a96,96,0,1,1,192,0v26a23.26,23.26,0,0,0-8.46-1.59h-2a15.47,15.47,0,0,0-11.65-11.6,127.34,127.34,0,0,1-62.87-36,15.26,15.26,0,0,0-21.58-.43l-.43.43a127.4,127.4,0,0,1-62.83,36,15.47,15.47,0,0,0-11.69,11.61h-2a23.24,23.24,0,0,0-8.46,1.58v-26Zm96,110.91c28.57,0,48.1-6,60.82-12.3a24.35,24.35,0,0,1-7.51,6.49l-41.44,23a24.23,24.23,0,0,1-23.67,0l-41.47-23A24.35,24.35,0,0,1,77,292.41l-5.27-58.16c0-.29.32-.48.56-.54a142.26,142.26,0,0,0,70.22-40.2.3.3,0,0,1,.43,0h0a142.28,142.28,0,0,0,70.22,40.2c.24.06.59.25.56.54l-4.49,49.32c-6.09,5.39-25.41,18.84-66.52,18.84a7.46,7.46,0,0,0,0,14.92h0ZM110.43,347v-6.76l13.25,7.36a39.06,39.06,0,0,0,38.16,0l13.25-7.36V347a23.31,23.31,0,0,0,14.39,21.57l8.47,3.53c-24.56,29.3-48.57,39.1-55.2,41.37-6.65-2.24-30.41-11.87-55.12-41.37l8.47-3.53A23.31,23.31,0,0,0,110.41,347Zm84.78,7.8A8.43,8.43,0,0,1,190,347v-15l13.3-7.37a39.26,39.26,0,0,0,20.05-30.79v-.32h6.93a23.26,23.26,0,0,0,8.46-1.59v81.08Zm35.09-76.27h-5.58l3-32.84h2.59a8.47,8.47,0,0,1,8.46,8.46V270a8.47,8.47,0,0,1-8.45,8.49h0ZM46.75,254.14a8.47,8.47,0,0,1,8.46-8.46h2.59l3,32.82H55.2A8.47,8.47,0,0,1,46.75,270Zm0,37.7a23.26,23.26,0,0,0,8.46,1.59h6.93v.32A39.26,39.26,0,0,0,82.2,324.53l13.3,7.37V347a8.43,8.43,0,0,1-5.2,7.8L46.75,372.93V291.85Z"/><path class="cls-1" d="M334,223.32H290.87V178.11H245.65V135h45.22V89.8H334V135h45.22v43.09H334Z"/></g></g></g></g></svg>