<svg id="Capa_1" data-name="Capa 1" xmlns="http://www.w3.org/2000/svg" viewBox="0 0 32 32"><defs><style>.cls-1{fill:#f44336;}.cls-2{fill:#fff;}.cls-3{fill:none;stroke:#fff;stroke-miterlimit:10;stroke-width:0.5px;}</style></defs><title>bus</title><path class="cls-1" d="M16.28,28.14h6v3a5,5,0,0,0,2.33.49,3.74,3.74,0,0,0,2.14-.49v-3c3,0,3-1.49,3-1.49V4.31s0-1.49-3-1.49-6-1.49-10.42-1.49S8.83,2.82,5.85,2.82s-3,1.49-3,1.49V26.65s0,1.49,3,1.49v3A3.74,3.74,0,0,0,8,31.61a5,5,0,0,0,2.33-.49v-3Z"/><rect class="cls-2" x="5.23" y="7.66" width="22.21" height="12.78" rx="2" ry="2"/><rect class="cls-2" x="11.06" y="3.44" width="10.11" height="2.3"/><circle class="cls-2" cx="7.88" cy="23.97" r="1.97"/><circle class="cls-2" cx="24.95" cy="23.97" r="1.97"/><line class="cls-3" x1="13.79" y1="23.11" x2="18.76" y2="23.11"/><line class="cls-3" x1="11.84" y1="24.18" x2="20.71" y2="24.18"/><line class="cls-3" x1="12.86" y1="25.35" x2="19.69" y2="25.35"/></svg>