<svg xmlns="http://www.w3.org/2000/svg" viewBox="0 0 319.55 323.04"><defs><style>.cls-1,.cls-2{fill:#933;}.cls-2{font-size:88.85px;font-family:Leelawadee-Bold, Leelawadee;font-weight:700;letter-spacing:-0.1em;}</style></defs><title>emergencias</title><g id="Capa_2" data-name="Capa 2"><g id="Layer_1" data-name="Layer 1"><path class="cls-1" d="M189.47,323c-38.42,0-75-20.2-122.39-67.55C37,225.4,16.6,194.06,6.48,162.36c-7.93-24.83-6.43-41-6.24-42.79a72,72,0,0,1,4.44-17.8,70.26,70.26,0,0,1,10-17.64,9.79,9.79,0,0,1,.68-.78l5.38-5.47a35.56,35.56,0,0,1,50.5-.21l26.59,26.59a35.6,35.6,0,0,1,0,50.29L89,163.38c6.16,11,14.63,25.53,29.58,40.49,14.71,14.7,28.83,23.13,39.78,29.25l7.25-7.72.2-.21,1.34-1.34a35.56,35.56,0,0,1,50.29,0l27.35,27.35a35.56,35.56,0,0,1-.2,50.49l-5.47,5.38a9.38,9.38,0,0,1-.8.7,70.85,70.85,0,0,1-17.6,10l-.1,0a71.91,71.91,0,0,1-17.69,4.4A113.23,113.23,0,0,1,189.47,323ZM29.12,96.07a51.46,51.46,0,0,0-7,12.47,53.5,53.5,0,0,0-3.3,13.16c0,.08-1.39,13.54,5.5,35.06,6.34,19.8,21.2,50.72,56,85.52,43.53,43.51,76.18,62.08,109.18,62.08a94.7,94.7,0,0,0,11.32-.7h.1A53.3,53.3,0,0,0,214,300.36a52.11,52.11,0,0,0,12.45-7l5.07-5a16.87,16.87,0,0,0,.1-24l-27.35-27.35a16.87,16.87,0,0,0-23.86,0l-1.23,1.24-12,12.82a9.34,9.34,0,0,1-11.33,1.78c-.36-.2-.68-.34-1-.5-.6-.29-1.35-.64-2.28-1.17-12.28-6.8-29.08-16.12-47.12-34.16-17.87-17.87-27.18-34.66-34-46.92l-.1-.19c-.44-.79-.88-1.62-1.31-2.44-.24-.46-.48-.92-.72-1.36a9.34,9.34,0,0,1,1.6-11.08l13.77-13.77a16.89,16.89,0,0,0,0-23.86L58.08,90.89a16.87,16.87,0,0,0-24,.1Z"/><path class="cls-1" d="M229.1,180.93a91.18,91.18,0,0,1-16.81-1.56A9.34,9.34,0,1,1,215.74,161,71.78,71.78,0,1,0,229.09,18.69h0A71.8,71.8,0,0,0,166,124.8a9.34,9.34,0,0,1,.82,6.9l-4.51,16.82,8.3-2.22a9.34,9.34,0,1,1,4.84,18.05l-19.79,5.3a11.82,11.82,0,0,1-14.47-14.48l6.65-24.81A90.44,90.44,0,0,1,229.08,0h0a90.47,90.47,0,0,1,.7,180.93Z"/><text class="cls-2" transform="translate(161.25 125.89)">107</text></g></g></svg>