<svg xmlns="http://www.w3.org/2000/svg" viewBox="0 0 120 100"><defs><style>.cls-1{fill:#ccc;}.cls-2{fill:#b3b3b3;}.cls-3{fill:#fff;}.cls-4,.cls-5{fill:none;stroke-miterlimit:10;}.cls-4{stroke:blue;}.cls-5{stroke:#29abe2;stroke-width:2px;}.cls-6{fill:#29abe2;}.cls-7{fill:#c0392b;}.cls-8{fill:#e74c3c;}.cls-9{fill:#ecf0f1;}</style></defs><title>error</title><g id="Capa_2" data-name="Capa 2"><g id="Capa_1-2" data-name="Capa 1"><rect class="cls-1" width="120" height="100"/><rect x="5.75" y="5" width="18.5" height="37" rx="2" ry="2"/><rect class="cls-2" x="7.14" y="9.58" width="15.73" height="26.87"/><circle class="cls-3" cx="15" cy="39.23" r="1.39"/><g id="Page-1"><g id="icon-131-cloud-error"><path id="cloud-error" d="M104,35.77h4.15A8.17,8.17,0,0,0,111.18,20h0A9,9,0,0,0,98.45,13.8a11.43,11.43,0,0,0-21.39,5.63q0,.34,0,.67h0a8.17,8.17,0,0,0,3.25,15.66h4.15l9.74-16.33L104,35.77ZM94.22,22.7l10.62,18H83.6l10.62-18Zm-.82,6.53v4.9H95v-4.9Zm0,6.53V37.4H95V35.77Z"/></g></g><path class="cls-4" d="M27.17,7"/><path class="cls-4" d="M27.17,7"/><path class="cls-4" d="M30.25,8.88"/><path class="cls-5" d="M51.67,21.33V11.69a4,4,0,0,0-1-2.77c-1.06-1-3.62-.92-3.62-.92H28.17"/><path class="cls-4" d="M31.25,6"/><polygon class="cls-6" points="30.57 5.24 30.56 10.58 26.2 7.9 30.57 5.24"/><path class="cls-5" d="M79.17,40H54.92a2.46,2.46,0,0,1-1.64-.69,2.79,2.79,0,0,1-.61-1.87V30"/><path class="cls-4" d="M79.17,40"/><polygon class="cls-6" points="76.58 42.58 76.63 37.42 80.82 40.04 76.58 42.58"/><path class="cls-7" d="M59.67,25.17A7.19,7.19,0,1,1,52.48,18,7.19,7.19,0,0,1,59.67,25.17Z"/><path class="cls-8" d="M59.67,24.45a7.19,7.19,0,1,1-7.19-7.19A7.19,7.19,0,0,1,59.67,24.45Z"/><path class="cls-7" d="M48.92,22.58l2.54,2.59-2.54,2.52,1,1,2.54-2.52L55,28.69l1-1L53.5,25.17,56,22.58l-1-1-2.54,2.52-2.54-2.52Z"/><path class="cls-9" d="M48.92,21.87l2.54,2.59L48.92,27l1,1,2.54-2.52L55,28l1-1L53.5,24.45,56,21.87l-1-1-2.54,2.52-2.54-2.52Z"/></g></g></svg>