<svg xmlns="http://www.w3.org/2000/svg" xmlns:xlink="http://www.w3.org/1999/xlink" viewBox="0 0 93.83 94.74"><defs><style>.cls-1,.cls-6,.cls-8{fill:none;}.cls-2{clip-path:url(#clip-path);}.cls-3{fill:#ebe8de;}.cls-4{fill:red;}.cls-5{fill:#fff;}.cls-6,.cls-7{stroke:#00b3fd;}.cls-11,.cls-6,.cls-7,.cls-8,.cls-9{stroke-miterlimit:10;}.cls-6{stroke-width:3px;}.cls-7{fill:#00b3fd;}.cls-11,.cls-7,.cls-9{stroke-width:2px;}.cls-8{stroke:red;}.cls-11,.cls-9{fill:#82212c;}.cls-9{stroke:#000;}.cls-10{fill:#f9f9f9;}.cls-11{stroke:#82212c;}</style><clipPath id="clip-path"><rect class="cls-1" x="13.06" y="21.7" width="58.17" height="58.17" rx="10" ry="10"/></clipPath></defs><title>logo</title><g id="Capa_2" data-name="Capa 2"><g id="Capa_1-2" data-name="Capa 1"><g class="cls-2"><rect class="cls-3" x="1.47" y="10.17" width="87.22" height="81.22"/><path class="cls-4" d="M62.14,21.7"/><rect class="cls-5" x="30.56" y="17.11" width="5.45" height="88.69" transform="translate(-33.71 41.54) rotate(-45)"/><rect class="cls-5" x="36.92" y="-11.06" width="5.45" height="88.69" transform="translate(35.15 -18.29) rotate(45)"/><rect class="cls-5" x="57.82" y="11.66" width="5.45" height="88.69" transform="translate(57.34 -26.41) rotate(45)"/><rect class="cls-5" x="52.37" y="-4.7" width="5.45" height="88.69" transform="translate(-11.9 50.57) rotate(-45)"/><path class="cls-6" d="M51.64,65.14l-5.57,5.25a3.1,3.1,0,0,1-1.86.79,2.34,2.34,0,0,1-1.88-.8l-18-17.94a2.68,2.68,0,0,1-.91-2,2.86,2.86,0,0,1,.85-1.85l18-17.89A3.63,3.63,0,0,0,43,29a3.87,3.87,0,0,0-.64-1.86L34.16,18.6"/><polygon class="cls-7" points="46.94 63.86 54.7 61.5 52.75 69.77 46.94 63.86"/><polygon class="cls-7" points="31.89 46.86 24.08 49.04 26.05 41.01 31.89 46.86"/></g><path class="cls-8" d="M55.43,63.64"/><path class="cls-9" d="M72.17,34.11c0,7.32-13.25,25-13.25,25s-13.25-17.7-13.25-25a13.25,13.25,0,0,1,26.5,0Z"/><rect class="cls-10" x="53.82" y="30.44" width="10.09" height="8.83" rx="2" ry="2"/><polygon class="cls-10" points="58.86 26.29 58.86 26.29 50.65 32.57 67.06 32.57 58.86 26.29"/><line class="cls-11" x1="55.52" y1="34.22" x2="62.19" y2="34.22"/><line class="cls-11" x1="58.86" y1="37.51" x2="58.86" y2="30.93"/></g></g></svg>