<svg xmlns="http://www.w3.org/2000/svg" xmlns:xlink="http://www.w3.org/1999/xlink" viewBox="0 0 1027.68 134.55"><defs><style>.cls-1,.cls-2,.cls-4{fill:#fff;}.cls-1{clip-rule:evenodd;}.cls-2{fill-rule:evenodd;}.cls-3{clip-path:url(#clip-path);}.cls-5{clip-path:url(#clip-path-2);}.cls-6{clip-path:url(#clip-path-3);}.cls-7{clip-path:url(#clip-path-4);}.cls-8{clip-path:url(#clip-path-5);}.cls-9{clip-path:url(#clip-path-6);}.cls-10{clip-path:url(#clip-path-7);}.cls-11{clip-path:url(#clip-path-8);}.cls-12{clip-path:url(#clip-path-9);}.cls-13{clip-path:url(#clip-path-10);}</style><clipPath id="clip-path"><path class="cls-1" d="M107.75,12.85c11.07,8,4.91,35.58-7.74,43.9,1.3-12.37,2.82-33.61-12-45.19h0c6.52,1.16,14.42-2.58,19.76,1.3"/></clipPath><clipPath id="clip-path-2"><path class="cls-1" d="M132.19,46.48c4.23,13-16.95,31.67-32.06,31,8.32-9.24,22-25.54,16.84-43.63h0c4.59,4.77,13.18,6.39,15.22,12.66"/></clipPath><clipPath id="clip-path-3"><path class="cls-1" d="M132.19,88.06c-4.23,13-32.33,15.66-44.14,6.21,12.16-2.59,32.84-7.7,39.27-25.4h0c.91,6.56,6.91,12.92,4.87,19.19"/></clipPath><clipPath id="clip-path-4"><path class="cls-1" d="M107.75,121.7c-11.07,8-35.36-6.33-39.36-20.92,11.36,5.06,31.1,13.07,46.7,2.53h0c-3.12,5.84-2,14.51-7.34,18.39"/></clipPath><clipPath id="clip-path-5"><path class="cls-1" d="M68.21,134.55c-13.68,0-24.88-25.9-19.54-40.06C54.88,105.25,66.14,123.34,85,124h0c-6,2.89-10.15,10.56-16.74,10.56"/></clipPath><clipPath id="clip-path-6"><path class="cls-1" d="M28.66,121.7c-11.06-8-4.9-35.58,7.74-43.9-1.3,12.37-2.82,33.61,12,45.19h0c-6.52-1.16-14.42,2.58-19.76-1.3"/></clipPath><clipPath id="clip-path-7"><path class="cls-1" d="M4.23,88.06c-4.23-13,16.95-31.67,32.06-31-8.32,9.24-22,25.54-16.84,43.63h0C14.86,96,6.26,94.33,4.23,88.06"/></clipPath><clipPath id="clip-path-8"><path class="cls-1" d="M4.23,46.49c4.23-13,32.33-15.66,44.14-6.21C36.2,42.86,15.52,48,9.1,65.67h0c-.91-6.56-6.91-12.92-4.87-19.19"/></clipPath><clipPath id="clip-path-9"><path class="cls-1" d="M28.66,12.85C39.73,4.81,64,19.18,68,33.77c-11.36-5.06-31.1-13.07-46.7-2.53h0c3.12-5.84,2-14.51,7.34-18.39"/></clipPath><clipPath id="clip-path-10"><path class="cls-1" d="M68.21,0C81.88,0,93.09,25.9,87.75,40.06c-6.22-10.77-17.47-28.85-36.29-29.5h0C57.42,7.67,61.61,0,68.21,0"/></clipPath></defs><title>mainBanner</title><g id="Capa_2" data-name="Capa 2"><g id="Capa_1-2" data-name="Capa 1"><path class="cls-2" d="M427.47,67.09,433,84.46H420.86ZM441.05,107h13.23l-21.07-58.2h-11L398.91,107h13.67l3.7-10.23h21Z"/><path class="cls-2" d="M399.33,48.84H385.57V85c0,7.41-3.35,12.08-10.58,12.08S364.5,92.4,364.5,85V48.84H350.74V85c0,14.55,8.2,23.37,24.25,23.37,16.22,0,24.34-8.82,24.34-23.37Z"/><path class="cls-2" d="M343.87,48.84H330.11V84.12c0,9.35-4.14,11.46-11.29,15.34L324.29,110c6.17-2.56,19.57-9.35,19.57-21.78Z"/><polygon class="cls-2" points="289.76 48.84 289.76 82.52 265.87 48.84 255.82 48.84 255.82 107.03 268.87 107.03 268.87 73.18 293.11 107.03 302.81 107.03 302.81 48.84 289.76 48.84"/><path class="cls-2" d="M226.13,67.09l5.56,17.37H219.51ZM239.71,107h13.23l-21.07-58.2h-11L197.56,107h13.67l3.7-10.23h21Z"/><path class="cls-2" d="M177.27,46.9c-14.11,0-21.6,6.08-21.6,17s7.41,15.17,17.72,19.22c6.35,2.38,11.37,4.32,11.37,8.55s-4.23,4.94-9,4.94a51.56,51.56,0,0,1-17.28-3.35l-3,11.64A59.28,59.28,0,0,0,176.3,109c14.55,0,22.13-6.7,22.13-18.08,0-9-4.76-13.84-16.58-18.52-10.14-4-12.34-4.85-12.34-8,0-3.88,3.26-5.64,8.55-5.64a43.16,43.16,0,0,1,14.55,2.91L195.79,50a56.63,56.63,0,0,0-18.52-3.09"/><polygon class="cls-2" points="491.81 48.84 491.81 82.52 467.91 48.84 457.86 48.84 457.86 107.03 470.91 107.03 470.91 73.18 495.16 107.03 504.86 107.03 504.86 48.84 491.81 48.84"/><path class="cls-2" d="M333.33,31.17v-5h9.27V22.48h-9.27V17.67h10.24V13.76H329.29V35.08h14.57V31.17Zm-11-4.59a4.43,4.43,0,0,1-4.59,4.59h-4.52V17.67h4.52a4.51,4.51,0,0,1,4.59,4.82ZM317.6,13.76h-8.43V35.08h8.56c4.59,0,8.63-3,8.63-7.95V21.64C326.36,16.63,322.12,13.76,317.6,13.76ZM288.78,32a4.59,4.59,0,0,1-4.91-4.65V21.38c0-3,2.36-4.52,4.91-4.52,2.81,0,4.94,1.55,4.94,4.52v5.95C293.73,30.33,291.63,32,288.78,32Zm0,3.78c4.94,0,9-3,9-8.14v-6.5c0-5.14-4-8-9-8s-9,2.91-9,8v6.5C279.83,32.73,283.87,35.76,288.78,35.76ZM273,13.76V27.1L262.9,13.76h-2.78V35.08H264V21.67l10.18,13.41h2.71V13.76Zm-28.3,3.91H250c2.26,0,3.17,1.42,3.17,2.78a2.84,2.84,0,0,1-3.17,3h-5.27Zm8.89,17.42h4.69l-5.36-8.34a6.37,6.37,0,0,0,4.23-6.3c0-3.65-2.2-6.69-7.17-6.69h-9.31V35.08h4V27.39h4Zm-26.36-3.91v-5h9.27V22.48h-9.27V17.67h10.24V13.76H223.2V35.08h14.57V31.17ZM220,13.76h-4V35.08h4ZM206.54,31.17H201V25.71h5.88a2.72,2.72,0,0,1,3,2.68C209.9,30,208.8,31.17,206.54,31.17Zm-.29-13.51A2.41,2.41,0,0,1,208.9,20a2.25,2.25,0,0,1-2.36,2.23H201V17.67Zm4.65,5.95a5.4,5.4,0,0,0,1.94-4.39c0-3.43-2.81-5.46-6.59-5.46H197V35.08h9.53c3.75,0,7.34-1.94,7.34-6.27A5.77,5.77,0,0,0,210.9,23.61ZM185.09,32a4.59,4.59,0,0,1-4.91-4.65V21.38c0-3,2.36-4.52,4.91-4.52,2.81,0,4.94,1.55,4.94,4.52v5.95C190,30.33,187.94,32,185.09,32Zm0,3.78c4.94,0,9-3,9-8.14v-6.5c0-5.14-4-8-9-8s-9,2.91-9,8v6.5C176.14,32.73,180.18,35.76,185.09,35.76Zm-20-13v3.91h4.2v5.2a23.76,23.76,0,0,1-3.56.32c-3.07,0-5.62-1.55-5.62-5.91V22.58c0-4.49,2.55-5.88,6-5.88a18.1,18.1,0,0,1,5.85,1l1-3.52a18.66,18.66,0,0,0-6.72-1.13c-6.72,0-10.15,3.2-10.15,9.21v4.3c0,5.82,3.84,9.18,9.47,9.18a18.74,18.74,0,0,0,7.79-1.55V22.77Z"/><path class="cls-2" d="M107.75,12.85c11.07,8,4.91,35.58-7.74,43.9,1.3-12.37,2.82-33.61-12-45.19h0c6.52,1.16,14.42-2.58,19.76,1.3"/><g class="cls-3"><rect class="cls-4" x="87.99" y="8.97" width="30.82" height="47.77"/></g><path class="cls-2" d="M132.19,46.48c4.23,13-16.95,31.67-32.06,31,8.32-9.24,22-25.54,16.84-43.63h0c4.59,4.77,13.18,6.39,15.22,12.66"/><g class="cls-5"><rect class="cls-4" x="100.13" y="33.82" width="36.29" height="44.33"/></g><path class="cls-2" d="M132.19,88.06c-4.23,13-32.33,15.66-44.14,6.21,12.16-2.59,32.84-7.7,39.27-25.4h0c.91,6.56,6.91,12.92,4.87,19.19"/><g class="cls-6"><rect class="cls-4" x="88.05" y="68.87" width="46.18" height="34.85"/></g><path class="cls-2" d="M107.75,121.7c-11.07,8-35.36-6.33-39.36-20.92,11.36,5.06,31.1,13.07,46.7,2.53h0c-3.12,5.84-2,14.51-7.34,18.39"/><g class="cls-7"><rect class="cls-4" x="68.39" y="100.78" width="46.7" height="28.96"/></g><path class="cls-2" d="M68.21,134.55c-13.68,0-24.88-25.9-19.54-40.06C54.88,105.25,66.14,123.34,85,124h0c-6,2.89-10.15,10.56-16.74,10.56"/><g class="cls-8"><rect class="cls-4" x="43.32" y="94.49" width="41.63" height="40.06"/></g><path class="cls-2" d="M28.66,121.7c-11.06-8-4.9-35.58,7.74-43.9-1.3,12.37-2.82,33.61,12,45.19h0c-6.52-1.16-14.42,2.58-19.76-1.3"/><g class="cls-9"><rect class="cls-4" x="17.6" y="77.8" width="30.82" height="47.77"/></g><path class="cls-2" d="M4.23,88.06c-4.23-13,16.95-31.67,32.06-31-8.32,9.24-22,25.54-16.84,43.63h0C14.86,96,6.26,94.33,4.23,88.06"/><g class="cls-10"><rect class="cls-4" y="56.39" width="36.29" height="44.33"/></g><path class="cls-2" d="M4.23,46.49c4.23-13,32.33-15.66,44.14-6.21C36.2,42.86,15.52,48,9.1,65.67h0c-.91-6.56-6.91-12.92-4.87-19.19"/><g class="cls-11"><rect class="cls-4" x="2.19" y="30.82" width="46.18" height="34.85"/></g><path class="cls-2" d="M28.66,12.85C39.73,4.81,64,19.18,68,33.77c-11.36-5.06-31.1-13.07-46.7-2.53h0c3.12-5.84,2-14.51,7.34-18.39"/><g class="cls-12"><rect class="cls-4" x="21.33" y="4.81" width="46.7" height="28.96"/></g><path class="cls-2" d="M68.21,0C81.88,0,93.09,25.9,87.75,40.06c-6.22-10.77-17.47-28.85-36.29-29.5h0C57.42,7.67,61.61,0,68.21,0"/><g class="cls-13"><rect class="cls-4" x="51.46" width="41.63" height="40.06"/></g><rect class="cls-4" x="573.63" width="4.11" height="134.55"/><path class="cls-4" d="M697.29,95.54H684.07L681.74,102h-8.61L687.8,65.33h6.94L708,102h-8.33ZM687,87.77h7.66l-3.5-10.94Zm49.74,6.44V102H711.21V65.33h8.66V94.21Zm32.83-6.11c0,9.16-5.11,14.72-15.33,14.72s-15.27-5.55-15.27-14.72V65.33h8.66V88.1c0,4.66,2.11,7.61,6.61,7.61s6.66-2.94,6.66-7.61V65.33h8.66Zm35-9v9c0,8.61-7.11,13.88-15.11,13.88H774V65.33h15.16C797,65.33,804.5,70.39,804.5,79.11Zm-8.66,1.66c0-4.83-2.94-7.66-6.44-7.66h-6.77v21.1h6.77c3.5,0,6.44-2.72,6.44-7.22Zm55.42-3.22c0,7.16-4,12.66-12.77,12.66h-8.22V102H821.6V65.33h16.88C847.26,65.33,851.26,70.72,851.26,77.55Zm-8.66,0c0-2.17-1.16-4.44-4.11-4.44h-8.22v9.33h8.22C841.43,82.44,842.59,80.16,842.59,77.55ZM884.68,88.1c0,9.16-5.11,14.71-15.33,14.71s-15.27-5.55-15.27-14.71V65.33h8.66V88.1c0,4.67,2.11,7.61,6.61,7.61S876,92.76,876,88.1V65.33h8.66Zm34.36,3c0,7.39-6.44,10.88-13,10.88H889.1V65.33h16.21c6.78,0,11.83,3.61,11.83,9.55a9.45,9.45,0,0,1-3.22,7.38A9.94,9.94,0,0,1,919,91.1Zm-21.27-18v6.44h7.77a3,3,0,0,0,3.11-3.11,3.2,3.2,0,0,0-3.33-3.33Zm12.72,17.1a3.72,3.72,0,0,0-4-3.72h-8.72v7.72H906C909.48,94.21,910.48,92.21,910.48,90.21Zm37.24,4V102H922.23V65.33h8.66V94.21ZM959.31,102h-8.66V65.33h8.66Zm31.63-35.93-2.11,7a24.84,24.84,0,0,0-8.61-1.78c-4.94,0-8,2.11-8,9.49v5.78c0,7.39,3.06,9.49,8,9.49a22,22,0,0,0,8.05-1.78l2.11,7a26,26,0,0,1-10,1.94c-11.94,0-16.83-5.83-16.83-16.11V80.22c0-10.27,4.89-16.11,16.83-16.11A28.49,28.49,0,0,1,990.94,66.06Zm26,29.49h-13.22l-2.33,6.44h-8.61l14.66-36.65h6.94L1027.68,102h-8.33Zm-10.33-7.77h7.66l-3.5-10.94Zm-345.17-36-.51-12-4.75,8.54h-1.74l-4.75-8.54-.51,12h-3.37L646.62,32h2.46l6.25,11.31L661.59,32h2.5l.75,19.84Zm10,0h-3.76V32h3.76ZM690.2,32V51.82h-2.52L678.2,39.34V51.82h-3.64V32h2.59l9.41,12.42V32Zm6.91,19.84h-3.76V32h3.76Zm15.63-19.45-.9,3.46a13.76,13.76,0,0,0-5-1c-2.41,0-3.55.84-3.55,2.31,0,1.32,1,1.68,4.45,3,4,1.53,5.83,3,5.83,6.22,0,4-2.89,6-7.36,6a20,20,0,0,1-6.83-1.32l.84-3.43a17.69,17.69,0,0,0,5.83,1.11c1.86,0,3.82-.33,3.82-2.17s-1.87-2.41-4.39-3.28c-3.52-1.35-6-2.71-6-6.34s2.25-5.68,7.09-5.68A18,18,0,0,1,712.75,32.36Zm17.82,3.25h-6V51.82h-3.76V35.61h-6V32h15.69Zm15.64,12.57v3.64H732.65V32h13.29v3.64h-9.53v4.48H745v3.4h-8.63v4.69Zm10.2-3.52h-3.76v7.16h-3.76V32h8.66c4.63,0,6.67,2.83,6.67,6.22a5.93,5.93,0,0,1-3.94,5.86l5,7.76h-4.36ZM752.65,41h4.9a2.64,2.64,0,0,0,2.95-2.79c0-1.26-.84-2.59-2.95-2.59h-4.9Zm18.54,10.82h-3.76V32h3.76Zm2.87-6.95v-6c0-4.78,3.82-7.49,8.33-7.49s8.36,2.71,8.36,7.49v6c0,4.75-3.76,7.58-8.36,7.58S774.06,49.62,774.06,44.87ZM787,44.6V39.07c0-2.77-2-4.21-4.6-4.21-2.38,0-4.57,1.44-4.57,4.21V44.6a4.28,4.28,0,0,0,4.57,4.33C785,48.93,787,47.4,787,44.6Zm29.56-5.29v5.11c0,4.6-3.76,7.4-8,7.4h-8V32h7.85C812.6,32,816.54,34.65,816.54,39.31Zm-3.76.78a4.19,4.19,0,0,0-4.27-4.48h-4.21V48.18h4.21a4.12,4.12,0,0,0,4.27-4.27Zm20.11,8.09v3.64H819.34V32h13.29v3.64H823.1v4.48h8.63v3.4H823.1v4.69Zm39.45,12.46h-8.27L869,54.58h9.46ZM670.51,66.06l-2,7.33a27.2,27.2,0,0,0-9.16-1.83c-3.33,0-5.39,1.11-5.39,3.55,0,2,1.39,2.55,7.77,5.05,7.44,2.94,10.44,6,10.44,11.66,0,7.16-4.78,11.38-13.94,11.38a37.36,37.36,0,0,1-13.1-2.56L647,93.32a32.48,32.48,0,0,0,10.88,2.11c3,0,5.66-.5,5.66-3.11s-3.16-3.89-7.16-5.39c-6.5-2.55-11.16-5.22-11.16-12.1S650,64.11,658.85,64.11A35.64,35.64,0,0,1,670.51,66.06Z"/></g></g></svg>