<svg xmlns="http://www.w3.org/2000/svg" xmlns:xlink="http://www.w3.org/1999/xlink" viewBox="0 0 504.91 498"><defs><style>.cls-1,.cls-2,.cls-4{fill:#fff;}.cls-1{clip-rule:evenodd;}.cls-2{fill-rule:evenodd;}.cls-3{clip-path:url(#clip-path);}.cls-5{clip-path:url(#clip-path-2);}.cls-6{clip-path:url(#clip-path-3);}.cls-7{clip-path:url(#clip-path-4);}.cls-8{clip-path:url(#clip-path-5);}.cls-9{clip-path:url(#clip-path-6);}.cls-10{clip-path:url(#clip-path-7);}.cls-11{clip-path:url(#clip-path-8);}.cls-12{clip-path:url(#clip-path-9);}.cls-13{clip-path:url(#clip-path-10);}</style><clipPath id="clip-path"><path class="cls-1" d="M398.81,47.55c41,29.76,18.16,131.7-28.63,162.48C375,164.26,380.63,85.61,325.69,42.76h0c24.13,4.3,53.39-9.54,73.12,4.8"/></clipPath><clipPath id="clip-path-2"><path class="cls-1" d="M489.27,172.05c15.65,48.15-62.72,117.22-118.66,114.62,30.79-34.21,81.58-94.52,62.33-161.48h0c17,17.66,48.8,23.66,56.34,46.86"/></clipPath><clipPath id="clip-path-3"><path class="cls-1" d="M489.27,325.94c-15.64,48.15-119.65,58-163.37,23,45-9.57,121.55-28.51,145.34-94h0c3.37,24.28,25.57,47.82,18,71"/></clipPath><clipPath id="clip-path-4"><path class="cls-1" d="M398.82,450.45C357.86,480.2,267.95,427,253.14,373c42,18.72,115.1,48.38,172.84,9.38h0c-11.54,21.62-7.42,53.72-27.16,68.06"/></clipPath><clipPath id="clip-path-5"><path class="cls-1" d="M252.46,498c-50.62,0-92.1-95.88-72.34-148.27,23,39.85,64.68,106.79,134.31,109.18h0c-22,10.71-37.58,39.1-62,39.1"/></clipPath><clipPath id="clip-path-6"><path class="cls-1" d="M106.1,450.45c-41-29.76-18.15-131.7,28.63-162.48-4.81,45.77-10.44,124.42,44.49,167.27h0c-24.13-4.3-53.38,9.54-73.12-4.8"/></clipPath><clipPath id="clip-path-7"><path class="cls-1" d="M15.64,325.95C0,277.8,78.37,208.73,134.31,211.33,103.51,245.54,52.73,305.85,72,372.81h0c-17-17.66-48.8-23.66-56.34-46.87"/></clipPath><clipPath id="clip-path-8"><path class="cls-1" d="M15.64,172.06c15.64-48.15,119.65-58,163.37-23-45,9.57-121.55,28.51-145.34,94h0c-3.37-24.27-25.57-47.82-18-71"/></clipPath><clipPath id="clip-path-9"><path class="cls-1" d="M106.1,47.56C147.05,17.8,237,71,251.77,125c-42-18.72-115.1-48.38-172.84-9.38h0C90.48,94,86.36,61.9,106.1,47.56"/></clipPath><clipPath id="clip-path-10"><path class="cls-1" d="M252.45,0c50.62,0,92.1,95.88,72.34,148.27-23-39.86-64.68-106.79-134.31-109.18h0c22-10.7,37.58-39.1,62-39.1"/></clipPath></defs><title>mainlogo</title><g id="Capa_2" data-name="Capa 2"><g id="Capa_1-2" data-name="Capa 1"><path class="cls-2" d="M398.81,47.55c41,29.76,18.16,131.7-28.63,162.48C375,164.26,380.63,85.61,325.69,42.76h0c24.13,4.3,53.39-9.54,73.12,4.8"/><g class="cls-3"><rect class="cls-4" x="325.69" y="33.21" width="114.08" height="176.82"/></g><path class="cls-2" d="M489.27,172.05c15.65,48.15-62.72,117.22-118.66,114.62,30.79-34.21,81.58-94.52,62.33-161.48h0c17,17.66,48.8,23.66,56.34,46.86"/><g class="cls-5"><rect class="cls-4" x="370.61" y="125.19" width="134.31" height="164.09"/></g><path class="cls-2" d="M489.27,325.94c-15.64,48.15-119.65,58-163.37,23,45-9.57,121.55-28.51,145.34-94h0c3.37,24.28,25.57,47.82,18,71"/><g class="cls-6"><rect class="cls-4" x="325.9" y="254.91" width="170.91" height="128.99"/></g><path class="cls-2" d="M398.82,450.45C357.86,480.2,267.95,427,253.14,373c42,18.72,115.1,48.38,172.84,9.38h0c-11.54,21.62-7.42,53.72-27.16,68.06"/><g class="cls-7"><rect class="cls-4" x="253.14" y="373.01" width="172.84" height="107.19"/></g><path class="cls-2" d="M252.46,498c-50.62,0-92.1-95.88-72.34-148.27,23,39.85,64.68,106.79,134.31,109.18h0c-22,10.71-37.58,39.1-62,39.1"/><g class="cls-8"><rect class="cls-4" x="160.36" y="349.73" width="154.08" height="148.27"/></g><path class="cls-2" d="M106.1,450.45c-41-29.76-18.15-131.7,28.63-162.48-4.81,45.77-10.44,124.42,44.49,167.27h0c-24.13-4.3-53.38,9.54-73.12-4.8"/><g class="cls-9"><rect class="cls-4" x="65.14" y="287.97" width="114.08" height="176.82"/></g><path class="cls-2" d="M15.64,325.95C0,277.8,78.37,208.73,134.31,211.33,103.51,245.54,52.73,305.85,72,372.81h0c-17-17.66-48.8-23.66-56.34-46.87"/><g class="cls-10"><rect class="cls-4" y="208.73" width="134.31" height="164.09"/></g><path class="cls-2" d="M15.64,172.06c15.64-48.15,119.65-58,163.37-23-45,9.57-121.55,28.51-145.34,94h0c-3.37-24.27-25.57-47.82-18-71"/><g class="cls-11"><rect class="cls-4" x="8.1" y="114.09" width="170.91" height="128.99"/></g><path class="cls-2" d="M106.1,47.56C147.05,17.8,237,71,251.77,125c-42-18.72-115.1-48.38-172.84-9.38h0C90.48,94,86.36,61.9,106.1,47.56"/><g class="cls-12"><rect class="cls-4" x="78.93" y="17.8" width="172.84" height="107.19"/></g><path class="cls-2" d="M252.45,0c50.62,0,92.1,95.88,72.34,148.27-23-39.86-64.68-106.79-134.31-109.18h0c22-10.7,37.58-39.1,62-39.1"/><g class="cls-13"><rect class="cls-4" x="190.47" width="154.08" height="148.27"/></g></g></g></svg>