<svg xmlns="http://www.w3.org/2000/svg" viewBox="0 0 350 335.1">
  <path fill="#562873" d="M41.6 327.1h12.9c.6 0 1.1 0 1.4.1.3 0 .7.2 1.1.4.8.4 1.1 1.5 1.1 3.3 0 2-.5 3.1-1.6 3.4-.5.2-1.2.3-2.2.3H37.9c-2 0-3.1-.5-3.4-1.6-.2-.4-.3-1.2-.3-2.1v-23.3c0-1.4.3-2.4.8-2.9s1.5-.8 3-.8h16.5c.6 0 1.1 0 1.4.1.3 0 .7.2 1.1.4.8.4 1.1 1.5 1.1 3.3 0 2-.5 3.1-1.6 3.4-.5.2-1.2.3-2.2.3H41.6v4.2h8.3c.6 0 1.1 0 1.4.1.3 0 .7.2 1.1.4.8.4 1.1 1.5 1.1 3.3 0 2-.5 3.1-1.6 3.4-.5.2-1.2.3-2.2.3h-8.2v4zM81.7 305.1c.3-.5.7-.8 1.2-1 .5-.2 1.2-.3 2-.3s1.4.1 1.9.2.9.3 1.1.5c.2.2.4.5.5.9.2.4.3 1.2.3 2.1v23.3c0 .7 0 1.2-.1 1.5 0 .3-.2.7-.4 1.1-.4.8-1.5 1.1-3.3 1.1-1.1 0-1.8-.1-2.3-.3-.4-.2-.8-.4-1-.8-6.3-8.4-10.4-13.9-12.4-16.4v13.8c0 .7 0 1.2-.1 1.5 0 .3-.2.7-.4 1.1-.4.8-1.5 1.1-3.3 1.1-1.7 0-2.8-.4-3.2-1.1-.2-.4-.4-.8-.4-1.1 0-.3-.1-.8-.1-1.5v-23.4c0-1.1.1-1.8.4-2.3.3-.5.7-.8 1.2-1 .5-.2 1.2-.3 2.1-.3.8 0 1.5.1 2 .2.5.2.8.3 1 .5.1.1.4.4 1 1.1 5.9 8 9.8 13.3 11.8 15.9v-14.2c.1-1 .2-1.7.5-2.2M104.8 330.2c-.7-.9-1.1-1.7-1.1-2.4s.6-1.7 1.8-2.8c.7-.7 1.4-1 2.2-1 .8 0 1.9.7 3.3 2.1.4.5.9.9 1.7 1.4.7.4 1.4.6 2 .6 2.6 0 3.9-1.1 3.9-3.2 0-.6-.4-1.2-1.1-1.6-.7-.4-1.6-.7-2.7-.9-1.1-.2-2.2-.5-3.4-.9-1.2-.4-2.4-.9-3.4-1.5-1.1-.6-1.9-1.5-2.7-2.8-.7-1.3-1.1-2.8-1.1-4.6 0-2.5.9-4.6 2.7-6.4 1.8-1.8 4.3-2.7 7.5-2.7 1.7 0 3.2.2 4.6.6 1.4.4 2.3.9 2.9 1.3l1 .8c.9.8 1.3 1.5 1.3 2.1 0 .6-.3 1.3-1 2.3-.9 1.4-1.9 2.1-2.9 2.1-.6 0-1.3-.3-2.2-.8-.1-.1-.2-.2-.5-.4-.2-.2-.5-.4-.7-.5-.6-.4-1.3-.5-2.2-.5-.9 0-1.7.2-2.3.7-.6.4-.9 1-.9 1.8s.4 1.4 1.1 1.9c.7.5 1.6.8 2.7 1 1.1.2 2.2.4 3.5.8 1.3.4 2.4.8 3.5 1.3s1.9 1.4 2.7 2.6c.7 1.2 1.1 2.8 1.1 4.6 0 1.8-.4 3.4-1.1 4.8-.7 1.4-1.7 2.5-2.9 3.2-2.3 1.5-4.7 2.2-7.3 2.2-1.3 0-2.6-.2-3.7-.5-1.2-.3-2.1-.7-2.9-1.2-1.5-.9-2.5-1.8-3.1-2.6l-.3-.9zM145.7 306l11.3 23.4c.5.9.7 1.7.7 2.1 0 1-.8 1.9-2.4 2.7-.9.5-1.7.7-2.2.7-.5 0-1-.1-1.3-.4-.4-.3-.6-.5-.8-.8-.2-.3-.4-.7-.7-1.3l-2.2-4.5h-11.6l-2.2 4.5c-.3.6-.5 1-.7 1.2-.2.3-.4.5-.8.8-.4.3-.8.4-1.3.4s-1.3-.2-2.2-.7c-1.6-.8-2.4-1.7-2.4-2.7 0-.5.2-1.2.7-2.1l11.3-23.5c.3-.6.8-1.2 1.4-1.6.6-.4 1.3-.6 2-.6 1.5.2 2.6.9 3.4 2.4m-3.4 10l-2.8 5.7h5.6l-2.8-5.7zM180.7 305.1c.3-.5.7-.8 1.2-1 .5-.2 1.2-.3 2-.3s1.4.1 1.9.2.9.3 1.1.5c.2.2.4.5.5.9.2.4.3 1.2.3 2.1v23.3c0 .7 0 1.2-.1 1.5 0 .3-.2.7-.4 1.1-.4.8-1.5 1.1-3.3 1.1-1.1 0-1.8-.1-2.3-.3-.4-.2-.8-.4-1-.8-6.3-8.4-10.4-13.9-12.4-16.4v13.8c0 .7 0 1.2-.1 1.5 0 .3-.2.7-.4 1.1-.4.8-1.5 1.1-3.3 1.1-1.7 0-2.8-.4-3.2-1.1-.2-.4-.4-.8-.4-1.1 0-.3-.1-.8-.1-1.5v-23.4c0-1.1.1-1.8.4-2.3.3-.5.7-.8 1.2-1 .5-.2 1.2-.3 2.1-.3.8 0 1.5.1 2 .2.5.2.8.3 1 .5.1.1.4.4 1 1.1 5.9 8 9.8 13.3 11.8 15.9v-14.2c.1-1 .3-1.7.5-2.2M219.1 303.8c1.1 0 1.9.1 2.4.3.5.2.9.5 1.1.9.3.6.5 1.5.5 2.6v16.2c0 2.9-1.1 5.5-3.2 7.8s-4.8 3.4-8.1 3.4c-1.8 0-3.5-.4-4.9-1.2-1.3-.7-2.2-1.3-2.7-1.9l-.3-.3c-1-1-1.5-1.9-1.5-2.7 0-.7.5-1.6 1.5-2.6s1.8-1.5 2.6-1.5 1.6.5 2.5 1.4c.9.9 1.9 1.4 3 1.4s2-.4 2.7-1.1c.7-.7 1-1.7 1-2.9v-15.7c0-1.7.3-2.8.8-3.2.6-.6 1.5-.9 2.6-.9M247.3 304.9c.3-.4.7-.8 1.2-.9.5-.2 1.2-.3 2-.3s1.4.1 1.9.2.8.3 1.1.5c.3.2.4.5.5.9.2.5.3 1.2.3 2.2v12.7c0 3.7-1.1 7-3.4 10.1-1.1 1.4-2.6 2.6-4.3 3.5-1.8.9-3.7 1.3-5.9 1.3-2.1 0-4.1-.4-5.8-1.3-1.7-.9-3.2-2.1-4.3-3.5-2.3-3-3.4-6.3-3.4-10.1v-12.6c0-.7 0-1.2.1-1.5 0-.3.2-.7.4-1.1.2-.4.6-.7 1.1-.9.5-.2 1.2-.3 2.1-.3.9 0 1.6.1 2.1.3.5.2.9.5 1.1.9.3.6.5 1.5.5 2.6v12.6c0 1.7.4 3.3 1.3 4.9.4.8 1 1.4 1.9 1.9.8.5 1.8.7 3 .7 2 0 3.6-.8 4.6-2.3 1-1.5 1.5-3.3 1.5-5.2v-12.8c0-1.3.1-2 .4-2.5M274.2 306l11.3 23.4c.5.9.7 1.7.7 2.1 0 1-.8 1.9-2.4 2.7-.9.5-1.7.7-2.2.7-.5 0-1-.1-1.3-.4-.4-.3-.6-.5-.8-.8-.2-.3-.4-.7-.7-1.3l-2.2-4.5H265l-2.2 4.5c-.3.6-.5 1-.7 1.2-.2.3-.4.5-.8.8-.4.3-.8.4-1.3.4s-1.3-.2-2.2-.7c-1.6-.8-2.4-1.7-2.4-2.7 0-.5.2-1.2.7-2.1l11.3-23.5c.3-.6.8-1.2 1.4-1.6.6-.4 1.3-.6 2-.6 1.5.2 2.6.9 3.4 2.4m-3.4 10l-2.8 5.7h5.6l-2.8-5.7zM309.2 305.1c.3-.5.7-.8 1.2-1 .5-.2 1.2-.3 2-.3s1.4.1 1.9.2.9.3 1.1.5c.2.2.4.5.5.9.2.4.3 1.2.3 2.1v23.3c0 .7 0 1.2-.1 1.5 0 .3-.2.7-.4 1.1-.4.8-1.5 1.1-3.3 1.1-1.1 0-1.8-.1-2.3-.3-.4-.2-.8-.4-1-.8-6.3-8.4-10.4-13.9-12.4-16.4v13.8c0 .7 0 1.2-.1 1.5 0 .3-.2.7-.4 1.1-.4.8-1.5 1.1-3.3 1.1-1.7 0-2.8-.4-3.2-1.1-.2-.4-.4-.8-.4-1.1 0-.3-.1-.8-.1-1.5v-23.4c0-1.1.1-1.8.4-2.3.3-.5.7-.8 1.2-1 .5-.2 1.2-.3 2.1-.3.8 0 1.5.1 2 .2.5.2.8.3 1 .5.1.1.4.4 1 1.1 5.9 8 9.8 13.3 11.8 15.9v-14.2c.1-1 .3-1.7.5-2.2M47.2 1.8c.2.5.4.9.4 1.2 0 .4.1.9.1 1.6v25.5c0 2.1-.6 3.4-1.7 3.7-.6.2-1.3.3-2.2.3-.9 0-1.6-.1-2.1-.2-.5-.2-.9-.3-1.2-.6-.3-.2-.5-.5-.6-.9-.2-.5-.2-1.3-.2-2.4V14.7c-.8 1-1.9 2.5-3.4 4.5-1.5 2.1-2.4 3.4-2.8 3.9-.4.5-.7.9-.8 1.1-.2.2-.5.5-1.1.8-.6.4-1.2.5-1.9.5s-1.3-.2-1.9-.5c-.6-.3-1-.6-1.2-.9l-.4-.5c-.6-.8-1.8-2.4-3.6-4.9-1.8-2.5-2.8-3.8-2.9-4v15.5c0 .7 0 1.2-.1 1.6 0 .4-.2.7-.4 1.2-.5.8-1.7 1.2-3.6 1.2-1.9 0-3-.4-3.5-1.2-.2-.4-.4-.8-.4-1.2 0-.4-.1-.9-.1-1.7V4.6c0-.7 0-1.2.1-1.6 0-.4.2-.8.4-1.2.5-.8 1.7-1.2 3.6-1.2.8 0 1.5.1 2.1.3.6.2 1 .4 1.2.6l.3.3 10.4 13.7c5-6.9 8.5-11.5 10.2-13.7.5-.8 1.8-1.2 3.7-1.2 2 0 3.2.4 3.6 1.2M52.3 4.6c0-.7 0-1.2.1-1.6 0-.4.2-.8.4-1.2.4-.8 1.6-1.2 3.6-1.2 2.1 0 3.4.6 3.8 1.7.2.5.2 1.3.2 2.4v25.6c0 .7 0 1.3-.1 1.6 0 .3-.2.7-.4 1.2-.4.8-1.6 1.2-3.6 1.2-2.1 0-3.4-.6-3.8-1.7-.2-.5-.3-1.3-.3-2.3V4.6zM65.6 29.5c-.8-1-1.2-1.9-1.2-2.6 0-.8.7-1.8 2-3.1.8-.7 1.6-1.1 2.4-1.1.9 0 2.1.8 3.6 2.3.4.5 1 1 1.8 1.5s1.5.7 2.2.7c2.9 0 4.3-1.2 4.3-3.5 0-.7-.4-1.3-1.2-1.8-.8-.5-1.8-.8-2.9-1-1.2-.2-2.4-.6-3.8-1-1.3-.5-2.6-1-3.8-1.7-1.2-.6-2.1-1.7-2.9-3.1S65 12 65 10.1C65 7.4 66 5 68 3s4.7-3 8.2-3c1.8 0 3.5.2 5 .7 1.5.5 2.6 1 3.1 1.5l1.2.8c.9.9 1.4 1.6 1.4 2.3 0 .6-.4 1.5-1.1 2.5-1 1.5-2.1 2.3-3.2 2.3-.6 0-1.4-.3-2.4-.9l-.5-.5c-.3-.2-.5-.4-.7-.6-.6-.4-1.5-.6-2.5-.6s-1.8.2-2.5.7c-.7.5-1 1.1-1 2 0 .8.4 1.5 1.2 2 .8.5 1.8.9 2.9 1.1 1.2.2 2.4.5 3.8.9s2.6.8 3.8 1.4c1.2.5 2.1 1.5 2.9 2.9.8 1.4 1.2 3 1.2 5s-.4 3.7-1.2 5.3c-.8 1.5-1.8 2.7-3.1 3.5-2.5 1.6-5.1 2.4-8 2.4-1.4 0-2.8-.2-4.1-.5-1.3-.4-2.3-.8-3.1-1.3-1.6-1-2.8-1.9-3.4-2.9l-.3-.5zM130.2 7.4c.8 1.6 1.2 3.4 1.2 5.4s-.4 3.8-1.2 5.4c-.8 1.6-1.8 2.9-3.1 3.8-2.5 2-5.2 2.9-7.9 2.9h-5.7v5.2c0 .7 0 1.2-.1 1.6 0 .4-.2.8-.4 1.2-.4.8-1.6 1.2-3.6 1.2-2.1 0-3.4-.6-3.8-1.7-.2-.5-.3-1.3-.3-2.4V4.6c0-.7 0-1.2.1-1.6 0-.4.2-.8.4-1.2.4-.8 1.6-1.2 3.6-1.2h9.8c2.7 0 5.3 1 7.9 2.9 1.3.9 2.3 2.2 3.1 3.9m-8.2 8.4c.9-.7 1.3-1.7 1.3-3s-.4-2.4-1.3-3.1c-.9-.7-1.8-1-2.8-1h-5.7v8.1h5.8c.9 0 1.8-.3 2.7-1M161.1 28.6c.5 1.1.7 1.9.7 2.4 0 1.2-1 2.1-2.9 2.9-1 .4-1.8.6-2.4.6-.6 0-1.1-.1-1.5-.4-.4-.3-.7-.6-.9-.9-.3-.6-1.5-3.4-3.6-8.3l-1.4.1h-5.8v5.2c0 .7 0 1.2-.1 1.6 0 .4-.2.8-.4 1.2-.4.8-1.6 1.2-3.6 1.2-2.1 0-3.4-.6-3.8-1.7-.2-.5-.3-1.3-.3-2.4V4.6c0-.7 0-1.2.1-1.6 0-.4.2-.8.4-1.2.4-.8 1.6-1.2 3.6-1.2h9.9c2.7 0 5.3 1 7.9 2.9 1.2 1 2.2 2.2 3 3.9.8 1.6 1.2 3.4 1.2 5.4 0 3.5-1.1 6.3-3.4 8.6.9 1.6 1.9 4 3.3 7.2m-17.6-11.8h5.9c.9 0 1.8-.3 2.7-1 .9-.7 1.3-1.7 1.3-3 0-1.4-.4-2.4-1.3-3.1-.9-.7-1.8-1-2.8-1h-5.8v8.1zM165.3 4.6c0-.7 0-1.2.1-1.6 0-.4.2-.8.4-1.2.4-.8 1.6-1.2 3.6-1.2 2.1 0 3.4.6 3.8 1.7.2.5.2 1.3.2 2.4v25.6c0 .7 0 1.3-.1 1.6 0 .3-.2.7-.4 1.2-.4.8-1.6 1.2-3.6 1.2-2.1 0-3.4-.6-3.8-1.7-.2-.5-.3-1.3-.3-2.3V4.6zM213.8 1.8c.2.5.4.9.4 1.2 0 .4.1.9.1 1.6v25.5c0 2.1-.6 3.4-1.7 3.7-.6.2-1.3.3-2.2.3-.9 0-1.6-.1-2.1-.2-.5-.2-.9-.3-1.2-.6-.3-.2-.5-.5-.6-.9-.2-.5-.2-1.3-.2-2.4V14.7c-.8 1-1.9 2.5-3.4 4.5-1.5 2.1-2.4 3.4-2.8 3.9-.4.5-.7.9-.8 1.1-.2.2-.5.5-1.1.8-.6.4-1.2.5-1.9.5s-1.3-.2-1.9-.5c-.6-.3-1-.6-1.2-.9l-.4-.5c-.6-.8-1.8-2.4-3.6-4.9-1.8-2.5-2.8-3.8-2.9-4v15.5c0 .7 0 1.2-.1 1.6 0 .4-.2.7-.4 1.2-.5.8-1.7 1.2-3.6 1.2-1.9 0-3-.4-3.5-1.2-.2-.4-.4-.8-.4-1.2 0-.4-.1-.9-.1-1.7V4.6c0-.7 0-1.2.1-1.6 0-.4.2-.8.4-1.2.5-.8 1.7-1.2 3.6-1.2.8 0 1.5.1 2.1.3.6.2 1 .4 1.2.6l.3.3 10.4 13.7c5.2-6.9 8.7-11.4 10.4-13.7.5-.8 1.8-1.2 3.7-1.2 1.8 0 3 .4 3.4 1.2M227.1 26.1h14.2c.7 0 1.2 0 1.6.1.4 0 .8.2 1.2.4.8.4 1.2 1.6 1.2 3.6 0 2.1-.6 3.4-1.7 3.8-.5.2-1.3.3-2.4.3H223c-2.1 0-3.4-.6-3.8-1.7-.2-.5-.3-1.3-.3-2.3V4.6c0-1.6.3-2.6.9-3.2.6-.6 1.7-.9 3.3-.9h18.1c.7 0 1.2 0 1.6.1.4 0 .8.2 1.2.4.8.4 1.2 1.6 1.2 3.6 0 2.1-.6 3.4-1.7 3.8-.5.2-1.3.3-2.4.3H227v4.6h9.1c.7 0 1.2 0 1.6.1.4 0 .8.2 1.2.4.8.4 1.2 1.6 1.2 3.6 0 2.1-.6 3.4-1.7 3.8-.5.2-1.3.3-2.4.3h-9v4.6zM275 28.6c.5 1.1.7 1.9.7 2.4 0 1.2-1 2.1-2.9 2.9-1 .4-1.8.6-2.4.6-.6 0-1.1-.1-1.5-.4-.4-.3-.7-.6-.9-.9-.3-.6-1.5-3.4-3.6-8.3l-1.4.1h-5.8v5.2c0 .7 0 1.2-.1 1.6 0 .4-.2.8-.4 1.2-.4.8-1.6 1.2-3.6 1.2-2.1 0-3.4-.6-3.8-1.7-.2-.5-.3-1.3-.3-2.4V4.6c0-.7 0-1.2.1-1.6 0-.4.2-.8.4-1.2.4-.8 1.6-1.2 3.6-1.2h9.9c2.7 0 5.3 1 7.9 2.9 1.2 1 2.2 2.2 3 3.9.8 1.6 1.2 3.4 1.2 5.4 0 3.5-1.1 6.3-3.4 8.6.8 1.6 1.9 4 3.3 7.2m-17.7-11.8h5.9c.9 0 1.8-.3 2.7-1 .9-.7 1.3-1.7 1.3-3 0-1.4-.4-2.4-1.3-3.1-.9-.7-1.8-1-2.8-1h-5.8v8.1zM294.5.1c4.5 0 8.5 1.6 11.8 4.9 3.3 3.3 5 7.3 5 12.2 0 4.9-1.6 9-4.8 12.4-3.2 3.4-7.1 5.1-11.8 5.1s-8.6-1.7-11.9-5.1c-3.3-3.4-4.9-7.4-4.9-12 0-2.5.5-4.9 1.4-7.2.9-2.2 2.1-4.1 3.7-5.6 1.5-1.5 3.3-2.7 5.3-3.5 2-.7 4.1-1.2 6.2-1.2m-8.4 17.4c0 2.7.9 4.9 2.6 6.6 1.8 1.7 3.7 2.6 5.9 2.6s4.1-.8 5.9-2.5c1.7-1.7 2.6-3.9 2.6-6.7 0-2.8-.9-5-2.6-6.7-1.8-1.7-3.7-2.5-5.9-2.5s-4.1.9-5.9 2.6c-1.7 1.6-2.6 3.8-2.6 6.6M315.7 29.5c-.8-1-1.2-1.9-1.2-2.6 0-.8.7-1.8 2-3.1.8-.7 1.6-1.1 2.4-1.1.9 0 2.1.8 3.6 2.3.4.5 1 1 1.8 1.5s1.5.7 2.2.7c2.8 0 4.3-1.2 4.3-3.5 0-.7-.4-1.3-1.2-1.8-.8-.5-1.8-.8-2.9-1-1.2-.2-2.4-.6-3.8-1-1.3-.5-2.6-1-3.8-1.7-1.2-.6-2.1-1.7-2.9-3.1-.8-1.4-1.2-3.1-1.2-5 0-2.7 1-5.1 3-7.1s4.7-3 8.2-3c1.8 0 3.5.2 5 .7 1.5.5 2.6 1 3.1 1.5l1.1.9c.9.9 1.4 1.6 1.4 2.3 0 .6-.4 1.5-1.1 2.5-1 1.5-2.1 2.3-3.2 2.3-.6 0-1.4-.3-2.4-.9-.1-.1-.3-.2-.5-.5-.3-.2-.5-.4-.7-.6-.6-.4-1.5-.6-2.5-.6s-1.8.2-2.5.7c-.7.5-1 1.1-1 2 0 .8.4 1.5 1.2 2 .8.5 1.8.9 2.9 1.1 1.2.2 2.4.5 3.8.9s2.6.8 3.8 1.4c1.2.5 2.1 1.5 2.9 2.9.8 1.4 1.2 3 1.2 5s-.4 3.7-1.2 5.3c-.8 1.5-1.8 2.7-3.1 3.5-2.5 1.6-5.1 2.4-8 2.4-1.4 0-2.8-.2-4.1-.5-1.3-.4-2.3-.8-3.1-1.3-1.6-1-2.8-1.9-3.4-2.9l-.1-.6z"/>
  <path fill="#E84E59" d="M76.5 126.2c-8.6 0-15.5-6.9-15.5-15.5C61 78.9 86.8 53 118.7 53c8.6 0 15.5 6.9 15.5 15.5S127.3 84 118.7 84C104 84 92 96 92 110.7c0 8.6-6.9 15.5-15.5 15.5"/>
  <path fill="#894390" d="M76.5 126.2c-8.6 0-15.5-6.9-15.5-15.5 0-15.3 5.9-29.7 16.7-40.6 6-6.1 15.9-6.1 21.9-.1 6.1 6 6.1 15.9.1 21.9-5 5-7.7 11.7-7.7 18.8 0 8.6-6.9 15.5-15.5 15.5"/>
  <path fill="#894390" d="M77.4 77.4c0 5.2-4.2 9.5-9.5 9.5-5.2 0-9.5-4.2-9.5-9.5 0-5.2 4.2-9.5 9.5-9.5 5.2 0 9.5 4.3 9.5 9.5"/>
  <path fill="#E84E59" d="M118.7 53c-8.6 0-15.5 6.9-15.5 15.5S110.1 84 118.7 84c14.7 0 26.7 12 26.7 26.7s-12 26.7-26.7 26.7c8.6 0 15.5 6.9 15.5 15.5s-6.9 15.5-15.5 15.5c31.8 0 57.7-25.9 57.7-57.7-.1-31.8-25.9-57.7-57.7-57.7"/>
  <path fill="#894390" d="M134.2 152.9c0-8.6-6.9-15.5-15.5-15.5-14.7 0-26.7-12-26.7-26.7 0-8.6-6.9-15.5-15.5-15.5S61 102.1 61 110.7c0 31.8 25.9 57.7 57.7 57.7 8.5 0 15.5-7 15.5-15.5"/>
  <path fill="#FDC32C" d="M121.5 134.6c.4-.8.6-1.8.6-2.8 0-3.2-2.2-5.9-5.2-6.5-7.5-2.1-9.5-4.3-9.5-4.3-2.7 1.8-6 2.9-9.5 2.9-4.5 0-8.6-1.7-11.7-4.6-3.1 3.6-4.9 8.5-4.9 13.9v12.7c0 11.1 7.5 14.1 7.5 14.1s5.9 3.7 11 5.2c.6.2 7.8 2.2 8.3 2.2 3.5.5 6.5 1 11.5 1 9.4 0 17-7.6 17-17 0-8.7-6.6-15.9-15.1-16.8"/>
  <path fill="#F39A88" d="M94.4 140.2h-9.7s-1.2 22.5 20.9 22.6c14.8.1 19.3-13.1 21.2-15.2 4.1-4.4 3.4-9 1.8-9.4-2.9-.8-5.5 3.1-6.3 6.1-2.1 7.1-10.8 10.8-16.1 10.8C96 155 94.4 144 94.4 140.2"/>
  <path fill="#894390" d="M93.9 112.4c-14.2 0-25.8-11.6-25.8-25.8 0-14.2 11.6-25.8 25.8-25.8 9.1 0 17.1 4.7 21.7 11.8"/>
  <path fill="#894390" d="M120.7 80.6c0 7-5.6 12.6-12.6 12.6s-12.6-5.6-12.6-12.6S101.1 68 108.1 68c6.9-.1 12.6 5.6 12.6 12.6"/>
  <path fill="#F39A88" d="M115.6 96.7c0-.7-1.5-1-2.5-4.2 0-.1-.1-.2-.1-.4V83c0-3-1.6-7-5.4-9-2.4-1.2-9-3.3-9-3.3s-12.1 0-14.3 8.1c-.8 2.9-.7 9.3-.5 14.3-1.3.6-2.2 2.1-2.2 4 0 2.1 1.2 3.8 2.8 4.2.5 4.9 3.5 9 7.7 11.2v2.4c-2.3 1.1-4.3 2.6-5.9 4.5 3.1 2.8 7.2 4.6 11.7 4.6 3.5 0 6.8-1.1 9.5-2.9l-4.3-4.9v-2.9c5.6-1.8 9.7-7 9.8-13.2v-1.6c.9-.4 2.7-1.1 2.7-1.8"/>
  <path fill="#894390" d="M107.5 74.6c1.6 10-11.8 19-20.1 19s-15-6.7-15-15 6.7-15 15-15c8.3.2 18.9 2.9 20.1 11"/>
  <path fill="#562873" d="M105.9 95.5c-2.1 0-3.7-1.7-3.7-3.7 0-.5.4-.9.9-.9s.9.4.9.9c0 1.1.9 1.9 1.9 1.9 1.1 0 1.9-.9 1.9-1.9 0-.5.4-.9.9-.9s.9.4.9.9c0 2-1.7 3.7-3.7 3.7"/>
  <path fill="#E84E59" d="M103.9 99.9h-3.7c-.2 0-.4-.2-.4-.4v-1.8c0-.2.2-.4.4-.4h3.7c.2 0 .4.2.4.4v1.8c-.1.3-.2.4-.4.4"/>
  <path fill="#562873" d="M109.8 105.8c-1.7 0-3.3-1-4-2.7-.2-.5 0-1 .5-1.2.5-.2 1 0 1.2.5.5 1.3 1.9 1.9 3.2 1.4.5-.2 1 0 1.2.5.2.5 0 1-.5 1.2-.6.2-1.1.3-1.6.3"/>
  <path fill="#894390" d="M204.3 168.4c-31.8 0-57.7-25.9-57.7-57.7 0-8.6 6.9-15.5 15.5-15.5s15.5 6.9 15.5 15.5c0 14.7 12 26.7 26.7 26.7s26.7-12 26.7-26.7S219 84 204.3 84c-8.6 0-15.5-6.9-15.5-15.5S195.7 53 204.3 53c31.8 0 57.7 25.9 57.7 57.7 0 31.8-25.9 57.7-57.7 57.7"/>
  <path fill="#FDC32C" d="M204.3 168.4c-14 0-27.5-5.1-38.1-14.3-6.4-5.7-7.1-15.5-1.4-21.9 5.7-6.4 15.5-7.1 21.9-1.4 4.9 4.3 11.1 6.6 17.6 6.6 8.6 0 15.5 6.9 15.5 15.5 0 8.5-6.9 15.5-15.5 15.5"/>
  <path fill="#FDC32C" d="M204.3 168.4c-31.8 0-57.7-25.9-57.7-57.7 0-8.6 6.9-15.5 15.5-15.5s15.5 6.9 15.5 15.5c0 14.7 12 26.7 26.7 26.7 8.6 0 15.5 6.9 15.5 15.5 0 8.5-6.9 15.5-15.5 15.5"/>
  <path fill="#FDC32C" d="M204.3 168.4c-14 0-27.5-5.1-38.1-14.3-6.4-5.7-7.1-15.5-1.4-21.9 5.7-6.4 15.5-7.1 21.9-1.4 4.9 4.3 11.1 6.6 17.6 6.6 8.6 0 15.5 6.9 15.5 15.5 0 8.5-6.9 15.5-15.5 15.5"/>
  <path fill="#FDC32C" d="M204.3 168.4c-8.6 0-15.5-6.9-15.5-15.5s6.9-15.5 15.5-15.5c8.9 0 17.1-4.4 22.1-11.8 4.8-7.1 14.4-9 21.5-4.2s9 14.4 4.2 21.5c-10.7 16-28.6 25.5-47.8 25.5"/>
  <path fill="#894390" d="M162.1 126.2c-8.6 0-15.5-6.9-15.5-15.5 0-31.8 25.9-57.7 57.7-57.7 8.6 0 15.5 6.9 15.5 15.5S212.9 84 204.3 84c-14.7 0-26.7 12-26.7 26.7 0 8.6-6.9 15.5-15.5 15.5"/>
  <path fill="#FDC32C" d="M187.8 126.8c6.6-10.3 16.5-16.1 32.9-16.1 17.4 0 28.6 9.6 32.1 16.1h-65z"/>
  <path fill="#F39A88" d="M183 111.6h-8.2c-6.1 0-11.1 5-11.1 11.1s5 11.1 11.1 11.1h.2c1.8 0 4.6 0 6.6-.1.5.1.9.1 1.4.1 6.1 0 11.1-5 11.1-11.1s-5-11.1-11.1-11.1"/>
  <path fill="#E84E59" d="M182.3 127.2h-1.8c-.2 0-.4-.2-.4-.4v-3.4c0-.2.2-.4.4-.4h1.8c.2 0 .4.2.4.4v3.4c0 .2-.2.4-.4.4"/>
  <path fill="#FDC32C" d="M182 137h43.3v21.1H182z"/>
  <path fill="#FDC32C" d="M160.8 126.1h86.8v11.3h-86.8z"/>
  <path fill="#FDC32C" d="M203.1 137c0 11.7-9.5 21.1-21.1 21.1s-21.1-9.5-21.1-21.1M247.6 137c0 11.7-9.5 21.1-21.1 21.1s-21.1-9.5-21.1-21.1"/>
  <path fill="#562873" d="M176.1 118c-.4 0-.7-.3-.7-.7 0-.4.3-.7.7-.7.4 0 .7-.3.7-.7 0-.4-.3-.7-.7-.7-.4 0-.7-.3-.7-.7 0-.4.3-.7.7-.7 1.3 0 2.2 1 2.2 2.2 0 1-1 2-2.2 2zM176.1 125.3c-.4 0-.7-.3-.7-.7 0-.4.3-.7.7-.7.2 0 .4-.1.5-.2.1-.1.2-.3.2-.5 0-.4-.3-.7-.7-.7-.4 0-.7-.3-.7-.7 0-.4.3-.7.7-.7 1.2 0 2.2 1 2.2 2.2 0 1-1 2-2.2 2z"/>
  <path fill="#FDC32C" d="M189.7 118.7c0 1.9-1.6 3.5-3.5 3.5s-3.5-1.6-3.5-3.5 1.6-3.5 3.5-3.5c1.9.1 3.5 1.6 3.5 3.5"/>
  <path fill="#894390" d="M187.8 118.7c0 .9-.7 1.6-1.6 1.6-.9 0-1.6-.7-1.6-1.6 0-.9.7-1.6 1.6-1.6.8.1 1.6.8 1.6 1.6"/>
  <path fill="#E84E59" d="M182 116.5h-1.8c-.2 0-.4-.2-.4-.4v-3.4c0-.2.2-.4.4-.4h1.8c.2 0 .4.2.4.4v3.4c0 .2-.2.4-.4.4"/>
  <path fill="#562873" d="M314.4 125.6c4.8-7.1 14.4-9 21.5-4.2 6.9 4.6 8.8 13.8 4.6 20.9 6-9.1 9.5-19.9 9.5-31.6 0-31.8-25.9-57.7-57.7-57.7-8.6 0-15.5 6.9-15.5 15.5S283.7 84 292.3 84C307 84 319 96 319 110.7c0 8.7-6.3 17.4-4.6 14.9"/>
  <path fill="#FDC32C" d="M292.3 168.4c-14 0-27.5-5.1-38.1-14.3-6.4-5.7-7.1-15.5-1.4-21.9 5.7-6.4 15.5-7.1 21.9-1.4 4.9 4.3 11.1 6.6 17.6 6.6 8.6 0 15.5 6.9 15.5 15.5 0 8.5-6.9 15.5-15.5 15.5"/>
  <path fill="#562873" d="M250.1 126.2c-8.6 0-15.5-6.9-15.5-15.5 0-31.8 25.9-57.7 57.7-57.7 8.6 0 15.5 6.9 15.5 15.5S300.9 84 292.3 84c-14.7 0-26.7 12-26.7 26.7.1 8.6-6.9 15.5-15.5 15.5"/>
  <path fill="#F39A88" d="M273.8 88.3c1.7-12.1 5.4-17.3 5.4-17.3l4.3.7s-3.3 9.1-2.6 21.4c.3 5 1.5 16.2 1.5 16.2h-7.5s-3-7.1-1.1-21"/>
  <path fill="#F39A88" d="M285.2 71c-.8 2.5-3.8 3.9-5.3 2.9-1.8-1.3-2-3-1.8-5.3.2-2.7 2.4-5.8 4.8-6.5 1.2-.4 2.6.4 2.9 1.1 1 2.4-.6 7.8-.6 7.8M315.6 88.3C314 76.2 310.3 71 310.3 71l-4.3.7s3.3 9.1 2.6 21.4c-.3 5-1.5 16.2-1.5 16.2h7.5c-.1 0 3-7.1 1-21"/>
  <path fill="#E84E59" d="M302.3 88c0 6.5-5.3 14-11.7 14-6.5 0-12.8 2.1-12.8-13.4 0-8.5 6.4-13.4 12.8-13.4 8 .1 11.7 6.4 11.7 12.8"/>
  <path fill="#E84E59" d="M311.6 88c0 8.1-5 13.6-11.5 13.6s-12.8-7.4-12.8-13.9S292.6 76 299 76c6.5.1 12.6 3.7 12.6 12"/>
  <path fill="#FDC32C" d="M316 105.2h-12.4c-2.4-1.8-5.5-2.8-8.9-2.8-3.4 0-6.4 1.1-8.9 2.8h-13.2c0 5.2 2.1 10.6 6.4 14.4 1 .9 1.5 2.1 1.5 3.5v6.8c0 7.2 6.4 12.9 14.2 12.9 7.8 0 14.2-5.8 14.2-12.9V122c0-1.2.5-2.4 1.4-3.3 3.8-3.7 5.7-8.7 5.7-13.5"/>
  <path fill="#F39A88" d="M294.6 80h-.1-.1c-7.4.1-13.5 6.2-13.5 13.7v8c0 7.5 6 13.5 13.5 13.7h.2c7.4-.1 13.5-6.2 13.5-13.7v-8c-.1-7.5-6.1-13.6-13.5-13.7"/>
  <path fill="#F39A88" d="M294.5 104.8c-2.6 0-4.6 2.1-4.6 4.6v2.7c0 2.5 2 4.5 4.5 4.6 2.5 0 4.5-2.1 4.5-4.6v-2.7c.1-2.5-1.9-4.6-4.4-4.6M283.2 97.6c0 1.6-1 2.8-2.3 2.8-1.3 0-2.3-1.3-2.3-2.8 0-1.6 1-2.8 2.3-2.8 1.3 0 2.3 1.3 2.3 2.8M310.3 97.6c0 1.6-.3 4-2.3 4-1.9 0-2.3-2.4-2.3-4s1-2.8 2.3-2.8c1.3 0 2.3 1.3 2.3 2.8"/>
  <path fill="#E84E59" d="M297.8 80c-2.4 2.4-1.1 1.3-1.1 7.7 0 8.7 10.2 6.3 12.7 3.9 0 0 .5-5.7-2.7-8.9-4.9-4.9-8.9-2.7-8.9-2.7"/>
  <path fill="#E84E59" d="M299.2 84.3c.9 5.9-6.9 7.3-8.2 3 0 0-.1 2.8-4.5 5.9-2.7 1.8-5.6 1.6-5.6 1.6-.5-11.2 8.2-16.9 11.4-16.9 3.3 0 6.4 3.2 6.9 6.4"/>
  <path fill="#F39A88" d="M288.3 68.2c-1.5 2-1.9 5-5.4 5.5 0 0-.2-1.3.4-2.7.5-1.2 2-3.6 4-4.1.9-.3 1.8.2 1 1.3M305.4 71c.8 2.5 3.8 3.9 5.3 2.9 1.8-1.3 2-3 1.8-5.3-.2-2.7-2.4-5.8-4.8-6.5-1.2-.4-2.6.4-2.9 1.1-1 2.4.6 7.8.6 7.8"/>
  <path fill="#F39A88" d="M302.4 68.2c1.5 2 1.9 5 5.4 5.5 0 0 .2-1.3-.4-2.7-.5-1.2-2-3.6-4-4.1-1-.3-1.8.2-1 1.3"/>
  <path fill="#FDC32C" d="M280.6 125.2H309V149h-28.4z"/>
  <path fill="#FDC32C" d="M292.3 168.4c-14 0-27.5-5.1-38.1-14.3-6.4-5.7-7.1-15.5-1.4-21.9 5.7-6.4 15.5-7.1 21.9-1.4 4.9 4.3 11.1 6.6 17.6 6.6 8.6 0 15.5 6.9 15.5 15.5 0 8.5-6.9 15.5-15.5 15.5"/>
  <path fill="#562873" d="M294.5 105.9c-2.1 0-3.7-1.7-3.7-3.7 0-.5.4-.9.9-.9s.9.4.9.9c0 1.1.9 1.9 1.9 1.9 1.1 0 1.9-.9 1.9-1.9 0-.5.4-.9.9-.9s.9.4.9.9c0 2-1.7 3.7-3.7 3.7M291 99.1c-.5 0-.9-.4-.9-.9 0-1.1-.9-1.9-1.9-1.9-1.1 0-1.9.9-1.9 1.9 0 .5-.4.9-.9.9s-.9-.4-.9-.9c0-2.1 1.7-3.7 3.7-3.7 2.1 0 3.7 1.7 3.7 3.7 0 .5-.4.9-.9.9M303.6 98.9c-.5 0-.9-.4-.9-.9 0-1.1-.9-1.9-1.9-1.9-1.1 0-1.9.9-1.9 1.9 0 .5-.4.9-.9.9s-.9-.4-.9-.9c0-2.1 1.7-3.7 3.7-3.7 2.1 0 3.7 1.7 3.7 3.7 0 .5-.4.9-.9.9"/>
  <path fill="#E84E59" d="M288.6 103h-3.7c-.2 0-.4-.2-.4-.4v-1.8c0-.2.2-.4.4-.4h3.7c.2 0 .4.2.4.4v1.8c0 .2-.2.4-.4.4M303.9 103h-3.7c-.2 0-.4-.2-.4-.4v-1.8c0-.2.2-.4.4-.4h3.7c.2 0 .4.2.4.4v1.8c0 .2-.2.4-.4.4M292.3 168.4c-31.8 0-57.7-25.9-57.7-57.7 0-8.6 6.9-15.5 15.5-15.5s15.5 6.9 15.5 15.5c0 14.7 12 26.7 26.7 26.7 8.6 0 15.5 6.9 15.5 15.5 0 8.5-6.9 15.5-15.5 15.5"/>
  <path fill="#E84E59" d="M340.5 142.3c4.2-7 2.3-16.2-4.6-20.9-7.1-4.8-16.7-2.9-21.5 4.2-1.7 2.5-3.8 4.7-6.1 6.4-1.3.9-2.6 1.8-4 2.4l-.6.3c-.2.1-.4.2-.7.3-.3.1-.5.2-.8.3-.2.1-.4.2-.6.2-.4.1-.7.3-1.1.4-.1 0-.2.1-.3.1-.5.2-1 .3-1.5.4-.1 0-.2 0-.2.1l-1.2.3c-.1 0-.3.1-.4.1-.4.1-.7.1-1.1.2-.2 0-.3 0-.5.1-.4 0-.7.1-1.1.1h-1.9c-8.6 0-15.5 6.9-15.5 15.5s6.9 15.5 15.5 15.5c1.1 0 2.2 0 3.3-.1.3 0 .6 0 1-.1.8-.1 1.6-.1 2.4-.2.4 0 .7-.1 1.1-.1.8-.1 1.5-.2 2.3-.4.3-.1.6-.1 1-.2.9-.2 1.7-.4 2.6-.6.2 0 .4-.1.6-.1 1-.3 2.1-.6 3.1-.9l.9-.3c.7-.2 1.4-.5 2.1-.7.5-.2.9-.4 1.4-.5l1.5-.6c.5-.2 1.1-.5 1.6-.7.3-.2.7-.3 1-.5 7.3-3.6 13.7-8.7 18.8-15 1.1-1.6 2.4-3.3 3.5-5M42 168.4c-8.6 0-15.5-6.9-15.5-15.5v-84c0-8.6 6.9-15.5 15.5-15.5s15.5 6.9 15.5 15.5v84c0 8.5-7 15.5-15.5 15.5"/>
  <path fill="#E84E59" d="M15.5 105.9c-4.9 0-9.7-2.3-12.7-6.6-4.9-7-3.2-16.7 3.8-21.6l26.5-21.6c7-4.9 16.7-3.2 21.6 3.8 4.9 7 3.2 16.7-3.8 21.6l-26.5 21.6c-2.7 1.9-5.8 2.8-8.9 2.8"/>
  <path fill="#562873" d="M212.3 195.6c-.1-.1-.1-.2-.2-.3-.1-.2-.2-.4-.3-.7-.1-.2-.2-.3-.3-.5-.1-.2-.3-.4-.4-.7-.1-.2-.2-.3-.3-.5-.2-.2-.3-.4-.5-.6-.1-.2-.3-.3-.4-.5-.2-.2-.3-.4-.5-.5-.2-.2-.3-.3-.5-.4-.2-.2-.3-.3-.5-.4-.2-.2-.4-.3-.6-.4-.2-.1-.3-.2-.5-.3-.2-.2-.5-.3-.7-.4-.1-.1-.3-.2-.4-.2-.3-.2-.6-.3-.9-.4-.1 0-.1-.1-.2-.1h-.1c-.3-.1-.7-.3-1-.4-.1 0-.2-.1-.3-.1-.3-.1-.7-.2-1-.3-.1 0-.2 0-.3-.1-.4-.1-.7-.1-1.1-.2h-.3c-.4 0-.7-.1-1.1-.1h-1.6c-.3 0-.7.1-1 .1-.1 0-.2 0-.4.1-.3.1-.6.1-.8.2-.2 0-.4.1-.5.1-.2.1-.4.1-.6.2-.3.1-.5.2-.8.3-.1 0-.1 0-.2.1-.1 0-.2.1-.2.1-.3.1-.5.3-.8.4-.2.1-.3.2-.5.3-.2.1-.5.3-.7.4-.2.1-.3.2-.5.3-.2.1-.4.3-.6.5-.2.1-.3.3-.5.4-.2.2-.4.3-.5.5-.1.2-.3.3-.4.5-.2.2-.3.4-.5.5-.1.2-.3.3-.4.5-.1.2-.3.4-.4.6-.1.2-.2.4-.4.6l-.3.6-.3.6c-.1.1-.1.2-.2.4L154 270.9c-3.1 7 .1 15.1 7.1 18.2 1.8.8 3.7 1.2 5.5 1.2 5.3 0 10.4-3.1 12.7-8.3l2.4-5.5h35.5l2.4 5.5c2.3 5.2 7.4 8.3 12.7 8.3 1.9 0 3.7-.4 5.5-1.2 7-3.1 10.2-11.2 7.1-18.2l-32.6-75.3zm-18.3 53l5.7-12.9 5.7 12.9H194zM60.1 187.3H42.4c-7.6 0-13.8 6.2-13.8 13.8v75.1c0 7.6 6.2 13.8 13.8 13.8H60c28.3 0 51.3-23 51.3-51.4.1-28.3-22.9-51.3-51.2-51.3m0 75.1h-3.8V215h3.8c13.1 0 23.7 10.6 23.7 23.7-.1 13-10.7 23.7-23.7 23.7M290.5 224.9H277.7c-2.7 0-4.9-2.2-4.9-4.9s2.2-4.9 4.9-4.9H302c7.6 0 13.8-6.2 13.8-13.8s-6.2-13.8-13.8-13.8h-24.4c-18 0-32.6 14.6-32.6 32.6 0 17.6 13.9 31.9 31.3 32.6H289.1c2.7 0 4.9 2.2 4.9 4.9s-2.2 4.9-4.9 4.9h-24.4c-7.6 0-13.8 6.2-13.8 13.8 0 7.6 6.2 13.8 13.8 13.8h24.4c18 0 32.6-14.6 32.6-32.6.1-17.6-13.8-32-31.2-32.6M123.4 210.7c-1.4-.5-3.3-1.6-4.9-2.9v68.5c0 7.6 6.2 13.8 13.8 13.8 7.6 0 13.8-6.2 13.8-13.8v-73.9c-3.9 5-11.9 12.3-22.7 8.3"/>
  <path fill="#562873" d="M127.1 175.5l-9.2 9.2c-5.4 5.4-5.4 14.2 0 19.5 5.4 5.4 14.1 5.4 19.5 0l9.2-9.2c5.4-5.4 5.4-14.2 0-19.5-5.4-5.4-14.1-5.4-19.5 0"/>
</svg>
