<svg xmlns="http://www.w3.org/2000/svg" xmlns:xlink="http://www.w3.org/1999/xlink" viewBox="0 0 99.41 100.38"><defs><style>.cls-1,.cls-10,.cls-14,.cls-6,.cls-9{fill:none;}.cls-2{clip-path:url(#clip-path);}.cls-3{fill:#ebe8de;}.cls-4{fill:red;}.cls-5{fill:#fff;}.cls-6,.cls-8{stroke:#00b3fd;}.cls-10,.cls-11,.cls-13,.cls-14,.cls-6,.cls-8,.cls-9{stroke-miterlimit:10;}.cls-6{stroke-width:3px;}.cls-7{fill:#cbe6a3;}.cls-8{fill:#00b3fd;}.cls-11,.cls-13,.cls-14,.cls-8{stroke-width:2px;}.cls-11,.cls-9{stroke:#000;}.cls-9{stroke-width:0.25px;}.cls-10{stroke:red;}.cls-11,.cls-13{fill:#82212c;}.cls-12{fill:#f9f9f9;}.cls-13,.cls-14{stroke:#82212c;}</style><clipPath id="clip-path"><rect class="cls-1" x="13.84" y="22.99" width="61.63" height="61.63" rx="10" ry="10"/></clipPath></defs><title>logo</title><g id="Capa_2" data-name="Capa 2"><g id="Capa_1-2" data-name="Capa 1"><g class="cls-2"><rect class="cls-3" x="1.55" y="10.77" width="92.41" height="86.06"/><path class="cls-4" d="M65.84,23"/><rect class="cls-5" x="32.37" y="18.13" width="5.78" height="93.96" transform="translate(-35.71 44.01) rotate(-45)"/><rect class="cls-5" x="39.11" y="-11.72" width="5.78" height="93.96" transform="translate(37.24 -19.37) rotate(45)"/><rect class="cls-5" x="61.26" y="12.36" width="5.78" height="93.96" transform="translate(60.75 -27.98) rotate(45)"/><rect class="cls-5" x="55.48" y="-4.98" width="5.78" height="93.96" transform="translate(-12.6 53.58) rotate(-45)"/><path class="cls-6" d="M54.71,69l-5.9,5.56a3.28,3.28,0,0,1-2,.84,2.48,2.48,0,0,1-2-.85l-19-19a2.84,2.84,0,0,1-1-2.08,3,3,0,0,1,.9-2l19.1-19a3.84,3.84,0,0,0,.69-1.84,4.1,4.1,0,0,0-.68-2l-8.65-9"/><rect class="cls-7" x="33.5" y="40.22" width="26.76" height="26.76" transform="translate(-24.17 48.85) rotate(-45)"/><polygon class="cls-8" points="49.73 67.66 57.96 65.16 55.89 73.92 49.73 67.66"/><polygon class="cls-8" points="33.79 49.65 25.51 51.95 27.6 43.45 33.79 49.65"/><path class="cls-9" d="M21.34,37.6"/><path class="cls-9" d="M83.67,99.94"/></g><path class="cls-10" d="M58.73,67.42"/><path class="cls-11" d="M76.46,36.14c0,7.75-14,26.51-14,26.51s-14-18.76-14-26.51a14,14,0,0,1,28.07,0Z"/><rect class="cls-12" x="57.03" y="32.25" width="10.7" height="9.36" rx="2" ry="2"/><polygon class="cls-12" points="62.36 27.86 62.36 27.86 53.67 34.51 71.05 34.51 62.36 27.86"/><line class="cls-13" x1="58.82" y1="36.25" x2="65.89" y2="36.25"/><line class="cls-13" x1="62.36" y1="39.74" x2="62.36" y2="32.77"/><path class="cls-14" d="M96.5,64"/></g></g></svg>